<?xml version="1.0" encoding="UTF-8" standalone="no"?>
<svg
   xmlns:dc="http://purl.org/dc/elements/1.1/"
   xmlns:cc="http://creativecommons.org/ns#"
   xmlns:rdf="http://www.w3.org/1999/02/22-rdf-syntax-ns#"
   xmlns:svg="http://www.w3.org/2000/svg"
   xmlns="http://www.w3.org/2000/svg"
   xmlns:sodipodi="http://sodipodi.sourceforge.net/DTD/sodipodi-0.dtd"
   xmlns:inkscape="http://www.inkscape.org/namespaces/inkscape"
   version="1.1"
   id="svg2"
   xml:space="preserve"
   width="619.02667"
   height="592.59998"
   viewBox="0 0 619.02667 592.59998"
   sodipodi:docname="4564459.eps"><metadata
     id="metadata8"><rdf:RDF><cc:Work
         rdf:about=""><dc:format>image/svg+xml</dc:format><dc:type
           rdf:resource="http://purl.org/dc/dcmitype/StillImage" /></cc:Work></rdf:RDF></metadata><defs
     id="defs6" /><sodipodi:namedview
     pagecolor="#ffffff"
     bordercolor="#666666"
     borderopacity="1"
     objecttolerance="10"
     gridtolerance="10"
     guidetolerance="10"
     inkscape:pageopacity="0"
     inkscape:pageshadow="2"
     inkscape:window-width="640"
     inkscape:window-height="480"
     id="namedview4" /><g
     id="g10"
     inkscape:groupmode="layer"
     inkscape:label="ink_ext_XXXXXX"
     transform="matrix(1.3333333,0,0,-1.3333333,0,592.6)"><g
       id="g12"
       transform="scale(0.1)"><path
         d="m 4407.36,3380.63 c -265.43,507.03 -769.27,858.3 -1312.59,991.41 C 2576.47,4499.02 1952.5,4492.77 1562.36,4074.63 1305.47,3799.31 1202.59,3416 975.871,3118.7 863.18,2970.93 722.148,2903.33 574.508,2799.9 214.656,2547.81 -50.0039,2142.14 7.99609,1683.31 104.961,916.191 804.719,504.211 1508,457.93 c 929.37,-61.141 1592.2,63.14 2155.21,422.941 292.43,186.869 584.07,408.619 762.57,715.539 269.96,464.15 258.88,1049.47 84.24,1547.85 -28.72,81.97 -63.12,160.84 -102.66,236.37"
         style="fill:#74ce9e;fill-opacity:1;fill-rule:nonzero;stroke:none"
         id="path14" /><path
         d="m 1937.77,443.031 c -136.75,0 -279.85,5.039 -429.77,14.899 C 804.719,504.211 104.961,916.191 7.99609,1683.31 2.61328,1725.88 0.0117188,1767.99 0.00390625,1809.56 -0.078125,2216.09 248.039,2571.19 574.508,2799.9 c 147.64,103.43 288.672,171.03 401.363,318.8 226.719,297.3 329.599,680.61 586.489,955.93 253.96,272.18 606.94,369.83 965.42,369.83 192.23,0 386.07,-28.09 566.99,-72.42 543.32,-133.11 1047.16,-484.38 1312.59,-991.41 39.54,-75.53 73.94,-154.4 102.66,-236.37 80.07,-228.5 125.76,-475.29 125.74,-720.29 -0.02,-289.35 -63.79,-576.22 -209.98,-827.56 C 4247.28,1289.49 3955.64,1067.74 3663.21,880.871 3191.02,579.109 2648.73,443.012 1937.77,443.031"
         style="fill:#e1f4e8;fill-opacity:1;fill-rule:nonzero;stroke:none"
         id="path16" /><path
         d="m 2278.64,10.9297 h -95.46 V 4165.52 c 0,26.36 21.37,47.73 47.73,47.73 26.36,0 47.73,-21.37 47.73,-47.73 V 10.9297"
         style="fill:#74ce9e;fill-opacity:1;fill-rule:nonzero;stroke:none"
         id="path18" /><path
         d="m 2278.64,10.9297 v 5 h -90.46 V 4165.52 c 0,11.82 4.78,22.46 12.52,30.21 7.75,7.74 18.4,12.52 30.21,12.52 11.82,0 22.47,-4.78 30.21,-12.52 7.74,-7.75 12.52,-18.39 12.52,-30.21 V 10.9297 h 5 v 5 -5 h 5 V 4165.52 c 0,29.12 -23.6,52.73 -52.73,52.73 -29.12,0 -52.73,-23.61 -52.73,-52.73 V 10.9297 c 0,-1.32032 0.53,-2.59767 1.46,-3.53126 0.94,-0.9375 2.22,-1.46875 3.54,-1.46875 h 95.46 c 1.32,0 2.6,0.53125 3.53,1.46094 0.94,0.9414 1.47,2.21875 1.47,3.53907 h -5"
         style="fill:#172c3a;fill-opacity:1;fill-rule:nonzero;stroke:none"
         id="path20" /><path
         d="m 1343.59,3365.17 h 836.89 v 294.69 h -836.89 v -294.69"
         style="fill:#172c3a;fill-opacity:1;fill-rule:nonzero;stroke:none"
         id="path22" /><path
         d="m 1343.59,3365.17 v -5 h 836.89 c 1.32,0 2.61,0.53 3.54,1.46 0.93,0.93 1.46,2.22 1.46,3.54 v 294.69 c 0,1.31 -0.53,2.6 -1.46,3.53 -0.93,0.93 -2.22,1.47 -3.54,1.47 h -836.89 c -1.32,0 -2.61,-0.54 -3.54,-1.47 -0.93,-0.93 -1.46,-2.22 -1.46,-3.53 v -294.69 c 0,-1.32 0.53,-2.61 1.46,-3.54 0.93,-0.93 2.22,-1.46 3.54,-1.46 v 5 h 5 v 289.69 h 826.89 v -284.69 h -831.89 v -5 h 5 -5"
         style="fill:#172c3a;fill-opacity:1;fill-rule:nonzero;stroke:none"
         id="path24" /><path
         d="m 2280.26,3681.05 h 836.9 v 294.68 h -836.9 v -294.68"
         style="fill:#172c3a;fill-opacity:1;fill-rule:nonzero;stroke:none"
         id="path26" /><path
         d="m 2280.26,3681.05 v -5 h 836.9 c 1.32,0 2.6,0.53 3.53,1.46 0.94,0.93 1.47,2.22 1.47,3.54 v 294.68 c 0,1.32 -0.53,2.61 -1.47,3.54 -0.93,0.93 -2.21,1.46 -3.53,1.46 h -836.9 c -1.32,0 -2.6,-0.53 -3.54,-1.46 -0.93,-0.93 -1.46,-2.22 -1.46,-3.54 v -294.68 c 0,-1.32 0.53,-2.61 1.46,-3.54 0.94,-0.93 2.22,-1.46 3.54,-1.46 v 5 h 5 v 289.68 h 826.9 v -284.68 h -831.9 v -5 h 5 -5"
         style="fill:#172c3a;fill-opacity:1;fill-rule:nonzero;stroke:none"
         id="path28" /><path
         d="m 2280.26,3163.66 467.32,-59.38 v 413.45 l -467.32,-59.38 v -294.69"
         style="fill:#172c3a;fill-opacity:1;fill-rule:nonzero;stroke:none"
         id="path30" /><path
         d="m 2280.26,3163.66 -0.63,-4.96 467.32,-59.38 c 1.42,-0.18 2.86,0.27 3.93,1.21 1.08,0.95 1.7,2.33 1.7,3.75 v 413.45 c 0,1.43 -0.62,2.81 -1.7,3.75 -1.07,0.95 -2.51,1.39 -3.93,1.21 l -467.32,-59.38 c -2.5,-0.32 -4.37,-2.44 -4.37,-4.96 v -294.69 c 0,-2.51 1.87,-4.64 4.37,-4.96 l 0.63,4.96 h 5 v 290.28 l 457.32,58.11 v -402.09 l -461.69,58.67 -0.63,-4.97 h 5 -5"
         style="fill:#172c3a;fill-opacity:1;fill-rule:nonzero;stroke:none"
         id="path32" /><path
         d="m 2653.4,3303.1 -103.14,113.74 v -49.6 l -215.41,-8.47 v -108.04 l 215.41,-10.7 v -49.6 l 103.14,112.67"
         style="fill:#74ce9e;fill-opacity:1;fill-rule:nonzero;stroke:none"
         id="path34" /><path
         d="m 2653.4,3303.1 3.7,3.36 -103.14,113.74 c -1.39,1.53 -3.58,2.05 -5.5,1.3 -1.93,-0.74 -3.2,-2.59 -3.2,-4.66 v -44.79 l -210.61,-8.29 c -2.68,-0.1 -4.8,-2.31 -4.8,-4.99 v -108.04 c 0,-2.67 2.08,-4.87 4.75,-5 l 210.66,-10.46 v -44.84 c 0,-2.07 1.26,-3.91 3.18,-4.66 1.93,-0.75 4.11,-0.24 5.5,1.29 l 103.15,112.67 c 1.74,1.9 1.75,4.82 0.01,6.73 l -3.7,-3.36 -3.69,3.38 -94.45,-103.18 v 36.73 c 0,2.67 -2.09,4.86 -4.76,4.99 l -210.66,10.46 0.01,98.48 210.6,8.28 c 2.69,0.11 4.81,2.31 4.81,5 v 36.64 l 94.44,-104.14 3.7,3.36 -3.69,3.38 3.69,-3.38"
         style="fill:#172c3a;fill-opacity:1;fill-rule:nonzero;stroke:none"
         id="path36" /><path
         d="m 2989.56,3849.78 -159.04,91.83 v -40.23 h -419.27 v -103.19 h 419.27 v -40.23 l 159.04,91.82"
         style="fill:#74ce9e;fill-opacity:1;fill-rule:nonzero;stroke:none"
         id="path38" /><path
         d="m 2989.56,3849.78 2.5,4.33 -159.04,91.82 c -1.55,0.9 -3.45,0.9 -5,0 -1.55,-0.89 -2.5,-2.54 -2.5,-4.32 v -35.23 h -414.27 c -1.32,0 -2.6,-0.53 -3.53,-1.47 -0.94,-0.93 -1.47,-2.21 -1.47,-3.53 v -103.19 c 0,-1.31 0.53,-2.6 1.47,-3.53 0.93,-0.93 2.21,-1.47 3.53,-1.47 h 414.27 v -35.23 c 0,-1.78 0.95,-3.44 2.5,-4.33 1.55,-0.89 3.45,-0.89 5,0 l 159.04,91.82 c 1.55,0.9 2.5,2.55 2.5,4.33 0,1.79 -0.95,3.44 -2.5,4.33 l -2.5,-4.33 -2.5,4.33 -151.54,-87.49 v 31.57 c 0,1.32 -0.53,2.61 -1.47,3.54 -0.93,0.93 -2.21,1.46 -3.53,1.46 h -414.27 v 93.19 h 414.27 c 1.32,0 2.6,0.53 3.53,1.46 0.94,0.93 1.47,2.22 1.47,3.54 v 31.57 l 151.54,-87.5 2.5,4.33 -2.5,4.33 2.5,-4.33"
         style="fill:#172c3a;fill-opacity:1;fill-rule:nonzero;stroke:none"
         id="path40" /><path
         d="m 1477.77,3510.34 159.04,91.82 v -40.23 h 419.28 v -103.19 h -419.28 v -40.23 l -159.04,91.83"
         style="fill:#74ce9e;fill-opacity:1;fill-rule:nonzero;stroke:none"
         id="path42" /><path
         d="m 1477.77,3510.34 2.5,-4.34 151.54,87.5 v -31.57 c 0,-1.32 0.54,-2.6 1.47,-3.54 0.93,-0.93 2.22,-1.46 3.53,-1.46 h 414.28 v -93.19 h -414.28 c -1.31,0 -2.6,-0.53 -3.53,-1.46 -0.93,-0.93 -1.47,-2.22 -1.47,-3.54 v -31.57 l -151.54,87.49 -2.5,-4.32 2.5,-4.34 -2.5,4.34 -2.5,-4.34 159.04,-91.82 c 1.55,-0.89 3.46,-0.89 5,0 1.55,0.9 2.5,2.55 2.5,4.33 v 35.23 h 414.28 c 1.31,0 2.6,0.54 3.53,1.47 0.93,0.93 1.47,2.22 1.47,3.53 v 103.19 c 0,1.32 -0.54,2.61 -1.47,3.54 -0.93,0.93 -2.22,1.46 -3.53,1.46 h -414.28 v 35.23 c 0,1.79 -0.95,3.44 -2.5,4.33 -1.54,0.89 -3.45,0.89 -5,0 l -159.04,-91.83 c -1.55,-0.89 -2.5,-2.54 -2.5,-4.32 0,-1.79 0.95,-3.44 2.5,-4.34 l 2.5,4.34"
         style="fill:#172c3a;fill-opacity:1;fill-rule:nonzero;stroke:none"
         id="path44" /><path
         d="m 3877.87,3710.89 h -5 c 0,-94.4 -38.24,-179.81 -100.1,-241.68 -61.87,-61.85 -147.28,-100.09 -241.67,-100.1 -94.4,0.01 -179.81,38.25 -241.67,100.1 -61.86,61.87 -100.1,147.28 -100.1,241.68 0,94.39 38.24,179.8 100.1,241.66 61.86,61.86 147.27,100.1 241.67,100.1 94.39,0 179.8,-38.24 241.67,-100.1 61.86,-61.86 100.1,-147.27 100.1,-241.66 h 5 5 c 0,194.27 -157.49,351.76 -351.77,351.76 -194.28,0 -351.77,-157.49 -351.77,-351.76 0,-194.28 157.49,-351.77 351.77,-351.78 194.28,0.01 351.77,157.5 351.77,351.78 h -5"
         style="fill:#172c3a;fill-opacity:1;fill-rule:nonzero;stroke:none"
         id="path46" /><path
         d="m 3755.61,3485.47 c -22.78,-22.69 -48.97,-41.94 -77.73,-56.93 -2.45,-1.28 -3.4,-4.3 -2.13,-6.75 1.28,-2.45 4.3,-3.4 6.75,-2.12 29.67,15.46 56.68,35.32 80.17,58.71 1.96,1.95 1.96,5.12 0.01,7.08 -1.94,1.95 -5.11,1.96 -7.07,0.01"
         style="fill:#172c3a;fill-opacity:1;fill-rule:nonzero;stroke:none"
         id="path48" /><path
         d="m 3632.37,3409.19 c -31.81,-10.67 -65.85,-16.45 -101.27,-16.45 -87.87,0 -167.38,35.6 -224.97,93.18 -57.58,57.59 -93.18,137.1 -93.18,224.97 0,87.86 35.6,167.37 93.18,224.96 57.59,57.58 137.1,93.18 224.97,93.18 87.87,0 167.38,-35.6 224.97,-93.18 57.58,-57.59 93.18,-137.1 93.18,-224.96 0,-59.45 -16.29,-115.05 -44.66,-162.64 -1.41,-2.37 -0.63,-5.45 1.74,-6.86 2.37,-1.41 5.44,-0.64 6.85,1.74 29.26,49.08 46.07,106.48 46.07,167.76 0,181.23 -146.92,328.14 -328.15,328.14 -181.24,0 -328.15,-146.91 -328.15,-328.14 0,-181.24 146.91,-328.15 328.15,-328.15 36.51,0 71.64,5.96 104.45,16.97 2.61,0.88 4.03,3.71 3.15,6.33 -0.88,2.62 -3.72,4.03 -6.33,3.15"
         style="fill:#172c3a;fill-opacity:1;fill-rule:nonzero;stroke:none"
         id="path50" /><path
         d="m 3556.68,3710.89 c 0,-14.13 -11.45,-25.59 -25.58,-25.59 -14.13,0 -25.58,11.46 -25.58,25.59 0,14.12 11.45,25.58 25.58,25.58 14.13,0 25.58,-11.46 25.58,-25.58"
         style="fill:#172c3a;fill-opacity:1;fill-rule:nonzero;stroke:none"
         id="path52" /><path
         d="m 3556.68,3710.89 h -5 c -0.02,-11.37 -9.22,-20.57 -20.58,-20.59 -11.36,0.02 -20.56,9.22 -20.58,20.59 0.02,11.36 9.22,20.56 20.58,20.58 11.36,-0.02 20.56,-9.22 20.58,-20.58 h 5 5 c 0,16.89 -13.69,30.57 -30.58,30.58 -16.89,-0.01 -30.58,-13.69 -30.58,-30.58 0,-16.9 13.69,-30.59 30.58,-30.59 16.89,0 30.58,13.69 30.58,30.59 h -5"
         style="fill:#172c3a;fill-opacity:1;fill-rule:nonzero;stroke:none"
         id="path54" /><path
         d="m 3572.76,3568.44 -35.95,140.3 211.88,145.14 c 2.27,1.56 2.86,4.67 1.3,6.94 -1.56,2.29 -4.68,2.87 -6.95,1.31 l -214.77,-147.12 c -1.73,-1.19 -2.54,-3.33 -2.02,-5.37 l 36.82,-143.69 c 0.68,-2.67 3.41,-4.28 6.08,-3.6 2.68,0.69 4.29,3.41 3.61,6.09"
         style="fill:#172c3a;fill-opacity:1;fill-rule:nonzero;stroke:none"
         id="path56" /><path
         d="M 1247.15,2811.18 V 2303.79 H 870.547 c -2.762,0 -5,-2.24 -5,-5 0,-2.76 2.238,-5 5,-5 h 381.603 c 1.32,0 2.6,0.53 3.54,1.46 0.93,0.93 1.46,2.22 1.46,3.54 v 512.39 c 0,2.76 -2.24,5 -5,5 -2.76,0 -5,-2.24 -5,-5"
         style="fill:#172c3a;fill-opacity:1;fill-rule:nonzero;stroke:none"
         id="path58" /><path
         d="m 562.512,2379.25 v 566.65 h 684.638 v -89.59 c 0,-2.76 2.24,-5 5,-5 2.76,0 5,2.24 5,5 v 94.59 c 0,1.32 -0.53,2.61 -1.46,3.54 -0.94,0.93 -2.22,1.46 -3.54,1.46 H 557.512 c -1.317,0 -2.606,-0.53 -3.535,-1.46 -0.93,-0.93 -1.465,-2.22 -1.465,-3.54 v -571.65 c 0,-2.77 2.238,-5 5,-5 2.761,0 5,2.23 5,5"
         style="fill:#172c3a;fill-opacity:1;fill-rule:nonzero;stroke:none"
         id="path60" /><path
         d="M 815.754,2303.79 H 562.512 v 36.77 c 0,2.77 -2.239,5 -5,5 -2.762,0 -5,-2.23 -5,-5 v -41.77 c 0,-1.32 0.535,-2.61 1.465,-3.54 0.929,-0.93 2.218,-1.46 3.535,-1.46 h 258.242 c 2.762,0 5,2.24 5,5 0,2.76 -2.238,5 -5,5"
         style="fill:#172c3a;fill-opacity:1;fill-rule:nonzero;stroke:none"
         id="path62" /><path
         d="m 667.535,2722.59 v 5 h -62.801 v 57.8 h 57.801 v -62.8 h 5 v 5 -5 h 5 v 67.8 c 0,1.32 -0.531,2.6 -1.465,3.53 -0.929,0.94 -2.218,1.47 -3.535,1.47 h -67.801 c -1.316,0 -2.605,-0.53 -3.539,-1.47 -0.929,-0.93 -1.461,-2.21 -1.461,-3.53 v -67.8 c 0,-1.32 0.532,-2.6 1.461,-3.53 0.934,-0.94 2.223,-1.47 3.539,-1.47 h 67.801 c 1.317,0 2.606,0.53 3.535,1.47 0.934,0.93 1.465,2.21 1.465,3.53 h -5"
         style="fill:#172c3a;fill-opacity:1;fill-rule:nonzero;stroke:none"
         id="path64" /><path
         d="m 757.93,2722.59 v 5 h -62.797 v 57.8 h 57.797 v -62.8 h 5 v 5 -5 h 5 v 67.8 c 0,1.32 -0.532,2.6 -1.461,3.53 -0.934,0.94 -2.223,1.47 -3.539,1.47 h -67.797 c -1.317,0 -2.606,-0.53 -3.535,-1.47 -0.93,-0.93 -1.465,-2.21 -1.465,-3.53 v -67.8 c 0,-1.32 0.535,-2.6 1.465,-3.53 0.929,-0.94 2.218,-1.47 3.535,-1.47 h 67.797 c 1.316,0 2.605,0.53 3.539,1.47 0.929,0.93 1.461,2.21 1.461,3.53 h -5"
         style="fill:#172c3a;fill-opacity:1;fill-rule:nonzero;stroke:none"
         id="path66" /><path
         d="m 848.332,2722.59 v 5 h -62.797 v 57.8 h 57.797 v -62.8 h 5 v 5 -5 h 5 v 67.8 c 0,1.32 -0.535,2.6 -1.465,3.53 -0.929,0.94 -2.219,1.47 -3.535,1.47 h -67.797 c -1.316,0 -2.605,-0.53 -3.539,-1.47 -0.93,-0.93 -1.461,-2.21 -1.461,-3.53 v -67.8 c 0,-1.32 0.531,-2.6 1.461,-3.53 0.934,-0.94 2.223,-1.47 3.539,-1.47 h 67.797 c 1.316,0 2.606,0.53 3.535,1.47 0.93,0.93 1.465,2.21 1.465,3.53 h -5"
         style="fill:#172c3a;fill-opacity:1;fill-rule:nonzero;stroke:none"
         id="path68" /><path
         d="m 938.73,2722.59 v 5 h -62.8 v 57.8 h 57.8 v -62.8 h 5 v 5 -5 h 5 v 67.8 c 0,1.32 -0.531,2.6 -1.46,3.53 -0.934,0.94 -2.219,1.47 -3.54,1.47 h -67.8 c -1.317,0 -2.606,-0.53 -3.535,-1.47 -0.93,-0.93 -1.465,-2.21 -1.465,-3.53 v -67.8 c 0,-1.32 0.535,-2.6 1.465,-3.53 0.929,-0.94 2.218,-1.47 3.535,-1.47 h 67.8 c 1.321,0 2.606,0.53 3.536,1.47 0.933,0.93 1.464,2.21 1.464,3.53 h -5"
         style="fill:#172c3a;fill-opacity:1;fill-rule:nonzero;stroke:none"
         id="path70" /><path
         d="m 1029.13,2722.59 v 5 h -62.802 v 57.8 h 57.802 v -62.8 h 5 v 5 -5 h 5 v 67.8 c 0,1.32 -0.54,2.6 -1.47,3.53 -0.93,0.94 -2.22,1.47 -3.53,1.47 h -67.802 c -1.316,0 -2.601,-0.53 -3.535,-1.47 -0.93,-0.93 -1.465,-2.21 -1.465,-3.53 v -67.8 c 0,-1.32 0.535,-2.6 1.465,-3.53 0.934,-0.94 2.219,-1.47 3.535,-1.47 h 67.802 c 1.31,0 2.6,0.53 3.53,1.47 0.93,0.93 1.47,2.21 1.47,3.53 h -5"
         style="fill:#172c3a;fill-opacity:1;fill-rule:nonzero;stroke:none"
         id="path72" /><path
         d="m 1119.53,2722.59 v 5 h -62.8 v 57.8 h 57.8 v -62.8 h 5 v 5 -5 h 5 v 67.8 c 0,1.32 -0.54,2.6 -1.47,3.53 -0.93,0.94 -2.22,1.47 -3.53,1.47 h -67.8 c -1.32,0 -2.6,-0.53 -3.54,-1.47 -0.93,-0.93 -1.46,-2.21 -1.46,-3.53 v -67.8 c 0,-1.32 0.53,-2.6 1.46,-3.53 0.94,-0.94 2.22,-1.47 3.54,-1.47 h 67.8 c 1.31,0 2.6,0.53 3.53,1.47 0.93,0.93 1.47,2.21 1.47,3.53 h -5"
         style="fill:#172c3a;fill-opacity:1;fill-rule:nonzero;stroke:none"
         id="path74" /><path
         d="m 1209.93,2722.59 v 5 h -62.8 v 57.8 h 57.8 v -62.8 h 5 v 5 -5 h 5 v 67.8 c 0,1.32 -0.54,2.6 -1.47,3.53 -0.93,0.94 -2.22,1.47 -3.53,1.47 h -67.8 c -1.32,0 -2.6,-0.53 -3.54,-1.47 -0.93,-0.93 -1.46,-2.21 -1.46,-3.53 v -67.8 c 0,-1.32 0.53,-2.6 1.46,-3.53 0.94,-0.94 2.22,-1.47 3.54,-1.47 h 67.8 c 1.31,0 2.6,0.53 3.53,1.47 0.93,0.93 1.47,2.21 1.47,3.53 h -5"
         style="fill:#172c3a;fill-opacity:1;fill-rule:nonzero;stroke:none"
         id="path76" /><path
         d="m 667.535,2615.59 v 5 h -62.801 v 57.8 h 57.801 v -62.8 h 5 v 5 -5 h 5 v 67.8 c 0,1.32 -0.531,2.61 -1.465,3.54 -0.929,0.93 -2.218,1.46 -3.535,1.46 h -67.801 c -1.316,0 -2.605,-0.53 -3.539,-1.46 -0.929,-0.93 -1.461,-2.22 -1.461,-3.54 v -67.8 c 0,-1.31 0.532,-2.6 1.461,-3.53 0.934,-0.93 2.223,-1.47 3.539,-1.47 h 67.801 c 1.317,0 2.606,0.54 3.535,1.47 0.934,0.93 1.465,2.22 1.465,3.53 h -5"
         style="fill:#172c3a;fill-opacity:1;fill-rule:nonzero;stroke:none"
         id="path78" /><path
         d="m 757.93,2615.59 v 5 h -62.797 v 57.8 h 57.797 v -62.8 h 5 v 5 -5 h 5 v 67.8 c 0,1.32 -0.532,2.61 -1.461,3.54 -0.934,0.93 -2.223,1.46 -3.539,1.46 h -67.797 c -1.317,0 -2.606,-0.53 -3.535,-1.46 -0.93,-0.93 -1.465,-2.22 -1.465,-3.54 v -67.8 c 0,-1.31 0.535,-2.6 1.465,-3.53 0.929,-0.93 2.218,-1.47 3.535,-1.47 h 67.797 c 1.316,0 2.605,0.54 3.539,1.47 0.929,0.93 1.461,2.22 1.461,3.53 h -5"
         style="fill:#172c3a;fill-opacity:1;fill-rule:nonzero;stroke:none"
         id="path80" /><path
         d="m 848.332,2615.59 v 5 h -62.797 v 57.8 h 57.797 v -62.8 h 5 v 5 -5 h 5 v 67.8 c 0,1.32 -0.535,2.61 -1.465,3.54 -0.929,0.93 -2.219,1.46 -3.535,1.46 h -67.797 c -1.316,0 -2.605,-0.53 -3.539,-1.46 -0.93,-0.93 -1.461,-2.22 -1.461,-3.54 v -67.8 c 0,-1.31 0.531,-2.6 1.461,-3.53 0.934,-0.93 2.223,-1.47 3.539,-1.47 h 67.797 c 1.316,0 2.606,0.54 3.535,1.47 0.93,0.93 1.465,2.22 1.465,3.53 h -5"
         style="fill:#172c3a;fill-opacity:1;fill-rule:nonzero;stroke:none"
         id="path82" /><path
         d="m 938.73,2615.59 v 5 h -62.8 v 57.8 h 57.8 v -62.8 h 5 v 5 -5 h 5 v 67.8 c 0,1.32 -0.531,2.61 -1.46,3.54 -0.934,0.93 -2.219,1.46 -3.54,1.46 h -67.8 c -1.317,0 -2.606,-0.53 -3.535,-1.46 -0.93,-0.93 -1.465,-2.22 -1.465,-3.54 v -67.8 c 0,-1.31 0.535,-2.6 1.465,-3.53 0.929,-0.93 2.218,-1.47 3.535,-1.47 h 67.8 c 1.321,0 2.606,0.54 3.536,1.47 0.933,0.93 1.464,2.22 1.464,3.53 h -5"
         style="fill:#172c3a;fill-opacity:1;fill-rule:nonzero;stroke:none"
         id="path84" /><path
         d="m 1029.13,2615.59 v 5 h -62.802 v 57.8 h 57.802 v -62.8 h 5 v 5 -5 h 5 v 67.8 c 0,1.32 -0.54,2.61 -1.47,3.54 -0.93,0.93 -2.22,1.46 -3.53,1.46 h -67.802 c -1.316,0 -2.601,-0.53 -3.535,-1.46 -0.93,-0.93 -1.465,-2.22 -1.465,-3.54 v -67.8 c 0,-1.31 0.535,-2.6 1.465,-3.53 0.934,-0.93 2.219,-1.47 3.535,-1.47 h 67.802 c 1.31,0 2.6,0.54 3.53,1.47 0.93,0.93 1.47,2.22 1.47,3.53 h -5"
         style="fill:#172c3a;fill-opacity:1;fill-rule:nonzero;stroke:none"
         id="path86" /><path
         d="m 1119.53,2615.59 v 5 h -62.8 v 57.8 h 57.8 v -62.8 h 5 v 5 -5 h 5 v 67.8 c 0,1.32 -0.54,2.61 -1.47,3.54 -0.93,0.93 -2.22,1.46 -3.53,1.46 h -67.8 c -1.32,0 -2.6,-0.53 -3.54,-1.46 -0.93,-0.93 -1.46,-2.22 -1.46,-3.54 v -67.8 c 0,-1.31 0.53,-2.6 1.46,-3.53 0.94,-0.93 2.22,-1.47 3.54,-1.47 h 67.8 c 1.31,0 2.6,0.54 3.53,1.47 0.93,0.93 1.47,2.22 1.47,3.53 h -5"
         style="fill:#172c3a;fill-opacity:1;fill-rule:nonzero;stroke:none"
         id="path88" /><path
         d="m 1209.93,2615.59 v 5 h -62.8 v 57.8 h 57.8 v -62.8 h 5 v 5 -5 h 5 v 67.8 c 0,1.32 -0.54,2.61 -1.47,3.54 -0.93,0.93 -2.22,1.46 -3.53,1.46 h -67.8 c -1.32,0 -2.6,-0.53 -3.54,-1.46 -0.93,-0.93 -1.46,-2.22 -1.46,-3.54 v -67.8 c 0,-1.31 0.53,-2.6 1.46,-3.53 0.94,-0.93 2.22,-1.47 3.54,-1.47 h 67.8 c 1.31,0 2.6,0.54 3.53,1.47 0.93,0.93 1.47,2.22 1.47,3.53 h -5"
         style="fill:#172c3a;fill-opacity:1;fill-rule:nonzero;stroke:none"
         id="path90" /><path
         d="m 667.535,2508.59 v 5 h -62.801 v 57.8 h 57.801 v -62.8 h 5 v 5 -5 h 5 v 67.8 c 0,1.32 -0.531,2.61 -1.465,3.54 -0.929,0.93 -2.218,1.46 -3.535,1.46 h -67.801 c -1.316,0 -2.605,-0.53 -3.539,-1.46 -0.929,-0.93 -1.461,-2.22 -1.461,-3.54 v -67.8 c 0,-1.31 0.532,-2.6 1.461,-3.53 0.934,-0.93 2.223,-1.47 3.539,-1.47 h 67.801 c 1.317,0 2.606,0.54 3.535,1.47 0.934,0.93 1.465,2.22 1.465,3.53 h -5"
         style="fill:#172c3a;fill-opacity:1;fill-rule:nonzero;stroke:none"
         id="path92" /><path
         d="m 757.93,2508.59 v 5 h -62.797 v 57.8 h 57.797 v -62.8 h 5 v 5 -5 h 5 v 67.8 c 0,1.32 -0.532,2.61 -1.461,3.54 -0.934,0.93 -2.223,1.46 -3.539,1.46 h -67.797 c -1.317,0 -2.606,-0.53 -3.535,-1.46 -0.93,-0.93 -1.465,-2.22 -1.465,-3.54 v -67.8 c 0,-1.31 0.535,-2.6 1.465,-3.53 0.929,-0.93 2.218,-1.47 3.535,-1.47 h 67.797 c 1.316,0 2.605,0.54 3.539,1.47 0.929,0.93 1.461,2.22 1.461,3.53 h -5"
         style="fill:#172c3a;fill-opacity:1;fill-rule:nonzero;stroke:none"
         id="path94" /><path
         d="m 848.332,2508.59 v 5 h -62.797 v 57.8 h 57.797 v -62.8 h 5 v 5 -5 h 5 v 67.8 c 0,1.32 -0.535,2.61 -1.465,3.54 -0.929,0.93 -2.219,1.46 -3.535,1.46 h -67.797 c -1.316,0 -2.605,-0.53 -3.539,-1.46 -0.93,-0.93 -1.461,-2.22 -1.461,-3.54 v -67.8 c 0,-1.31 0.531,-2.6 1.461,-3.53 0.934,-0.93 2.223,-1.47 3.539,-1.47 h 67.797 c 1.316,0 2.606,0.54 3.535,1.47 0.93,0.93 1.465,2.22 1.465,3.53 h -5"
         style="fill:#172c3a;fill-opacity:1;fill-rule:nonzero;stroke:none"
         id="path96" /><path
         d="m 938.73,2508.59 v 5 h -62.8 v 57.8 h 57.8 v -62.8 h 5 v 5 -5 h 5 v 67.8 c 0,1.32 -0.531,2.61 -1.46,3.54 -0.934,0.93 -2.219,1.46 -3.54,1.46 h -67.8 c -1.317,0 -2.606,-0.53 -3.535,-1.46 -0.93,-0.93 -1.465,-2.22 -1.465,-3.54 v -67.8 c 0,-1.31 0.535,-2.6 1.465,-3.53 0.929,-0.93 2.218,-1.47 3.535,-1.47 h 67.8 c 1.321,0 2.606,0.54 3.536,1.47 0.933,0.93 1.464,2.22 1.464,3.53 h -5"
         style="fill:#172c3a;fill-opacity:1;fill-rule:nonzero;stroke:none"
         id="path98" /><path
         d="m 1029.13,2508.59 v 5 h -62.802 v 57.8 h 57.802 v -62.8 h 5 v 5 -5 h 5 v 67.8 c 0,1.32 -0.54,2.61 -1.47,3.54 -0.93,0.93 -2.22,1.46 -3.53,1.46 h -67.802 c -1.316,0 -2.601,-0.53 -3.535,-1.46 -0.93,-0.93 -1.465,-2.22 -1.465,-3.54 v -67.8 c 0,-1.31 0.535,-2.6 1.465,-3.53 0.934,-0.93 2.219,-1.47 3.535,-1.47 h 67.802 c 1.31,0 2.6,0.54 3.53,1.47 0.93,0.93 1.47,2.22 1.47,3.53 h -5"
         style="fill:#172c3a;fill-opacity:1;fill-rule:nonzero;stroke:none"
         id="path100" /><path
         d="m 1119.53,2508.59 v 5 h -62.8 v 57.8 h 57.8 v -62.8 h 5 v 5 -5 h 5 v 67.8 c 0,1.32 -0.54,2.61 -1.47,3.54 -0.93,0.93 -2.22,1.46 -3.53,1.46 h -67.8 c -1.32,0 -2.6,-0.53 -3.54,-1.46 -0.93,-0.93 -1.46,-2.22 -1.46,-3.54 v -67.8 c 0,-1.31 0.53,-2.6 1.46,-3.53 0.94,-0.93 2.22,-1.47 3.54,-1.47 h 67.8 c 1.31,0 2.6,0.54 3.53,1.47 0.93,0.93 1.47,2.22 1.47,3.53 h -5"
         style="fill:#172c3a;fill-opacity:1;fill-rule:nonzero;stroke:none"
         id="path102" /><path
         d="m 1209.93,2508.59 v 5 h -62.8 v 57.8 h 57.8 v -62.8 h 5 v 5 -5 h 5 v 67.8 c 0,1.32 -0.54,2.61 -1.47,3.54 -0.93,0.93 -2.22,1.46 -3.53,1.46 h -67.8 c -1.32,0 -2.6,-0.53 -3.54,-1.46 -0.93,-0.93 -1.46,-2.22 -1.46,-3.54 v -67.8 c 0,-1.31 0.53,-2.6 1.46,-3.53 0.94,-0.93 2.22,-1.47 3.54,-1.47 h 67.8 c 1.31,0 2.6,0.54 3.53,1.47 0.93,0.93 1.47,2.22 1.47,3.53 h -5"
         style="fill:#172c3a;fill-opacity:1;fill-rule:nonzero;stroke:none"
         id="path104" /><path
         d="m 667.535,2401.59 v 5 h -62.801 v 57.81 h 57.801 v -62.81 h 5 v 5 -5 h 5 v 67.81 c 0,1.31 -0.531,2.6 -1.465,3.53 -0.929,0.93 -2.218,1.47 -3.535,1.47 h -67.801 c -1.316,0 -2.605,-0.54 -3.539,-1.47 -0.929,-0.93 -1.461,-2.22 -1.461,-3.53 v -67.81 c 0,-1.31 0.532,-2.6 1.461,-3.53 0.934,-0.93 2.223,-1.47 3.539,-1.47 h 67.801 c 1.317,0 2.606,0.54 3.535,1.47 0.934,0.93 1.465,2.22 1.465,3.53 h -5"
         style="fill:#172c3a;fill-opacity:1;fill-rule:nonzero;stroke:none"
         id="path106" /><path
         d="m 757.93,2401.59 v 5 h -62.797 v 57.81 h 57.797 v -62.81 h 5 v 5 -5 h 5 v 67.81 c 0,1.31 -0.532,2.6 -1.461,3.53 -0.934,0.93 -2.223,1.47 -3.539,1.47 h -67.797 c -1.317,0 -2.606,-0.54 -3.535,-1.47 -0.93,-0.93 -1.465,-2.22 -1.465,-3.53 v -67.81 c 0,-1.31 0.535,-2.6 1.465,-3.53 0.929,-0.93 2.218,-1.47 3.535,-1.47 h 67.797 c 1.316,0 2.605,0.54 3.539,1.47 0.929,0.93 1.461,2.22 1.461,3.53 h -5"
         style="fill:#172c3a;fill-opacity:1;fill-rule:nonzero;stroke:none"
         id="path108" /><path
         d="m 848.332,2401.59 v 5 h -62.797 v 57.81 h 57.797 v -62.81 h 5 v 5 -5 h 5 v 67.81 c 0,1.31 -0.535,2.6 -1.465,3.53 -0.929,0.93 -2.219,1.47 -3.535,1.47 h -67.797 c -1.316,0 -2.605,-0.54 -3.539,-1.47 -0.93,-0.93 -1.461,-2.22 -1.461,-3.53 v -67.81 c 0,-1.31 0.531,-2.6 1.461,-3.53 0.934,-0.93 2.223,-1.47 3.539,-1.47 h 67.797 c 1.316,0 2.606,0.54 3.535,1.47 0.93,0.93 1.465,2.22 1.465,3.53 h -5"
         style="fill:#172c3a;fill-opacity:1;fill-rule:nonzero;stroke:none"
         id="path110" /><path
         d="m 938.73,2401.59 v 5 h -62.8 v 57.81 h 57.8 v -62.81 h 5 v 5 -5 h 5 v 67.81 c 0,1.31 -0.531,2.6 -1.46,3.53 -0.934,0.93 -2.219,1.47 -3.54,1.47 h -67.8 c -1.317,0 -2.606,-0.54 -3.535,-1.47 -0.93,-0.93 -1.465,-2.22 -1.465,-3.53 v -67.81 c 0,-1.31 0.535,-2.6 1.465,-3.53 0.929,-0.93 2.218,-1.47 3.535,-1.47 h 67.8 c 1.321,0 2.606,0.54 3.536,1.47 0.933,0.93 1.464,2.22 1.464,3.53 h -5"
         style="fill:#172c3a;fill-opacity:1;fill-rule:nonzero;stroke:none"
         id="path112" /><path
         d="m 1029.13,2401.59 v 5 h -62.802 v 57.81 h 57.802 v -62.81 h 5 v 5 -5 h 5 v 67.81 c 0,1.31 -0.54,2.6 -1.47,3.53 -0.93,0.93 -2.22,1.47 -3.53,1.47 h -67.802 c -1.316,0 -2.601,-0.54 -3.535,-1.47 -0.93,-0.93 -1.465,-2.22 -1.465,-3.53 v -67.81 c 0,-1.31 0.535,-2.6 1.465,-3.53 0.934,-0.93 2.219,-1.47 3.535,-1.47 h 67.802 c 1.31,0 2.6,0.54 3.53,1.47 0.93,0.93 1.47,2.22 1.47,3.53 h -5"
         style="fill:#172c3a;fill-opacity:1;fill-rule:nonzero;stroke:none"
         id="path114" /><path
         d="m 1119.53,2401.59 v 5 h -62.8 v 57.81 h 57.8 v -62.81 h 5 v 5 -5 h 5 v 67.81 c 0,1.31 -0.54,2.6 -1.47,3.53 -0.93,0.93 -2.22,1.47 -3.53,1.47 h -67.8 c -1.32,0 -2.6,-0.54 -3.54,-1.47 -0.93,-0.93 -1.46,-2.22 -1.46,-3.53 v -67.81 c 0,-1.31 0.53,-2.6 1.46,-3.53 0.94,-0.93 2.22,-1.47 3.54,-1.47 h 67.8 c 1.31,0 2.6,0.54 3.53,1.47 0.93,0.93 1.47,2.22 1.47,3.53 h -5"
         style="fill:#172c3a;fill-opacity:1;fill-rule:nonzero;stroke:none"
         id="path116" /><path
         d="m 1209.93,2401.59 v 5 h -62.8 v 57.81 h 57.8 v -62.81 h 5 v 5 -5 h 5 v 67.81 c 0,1.31 -0.54,2.6 -1.47,3.53 -0.93,0.93 -2.22,1.47 -3.53,1.47 h -67.8 c -1.32,0 -2.6,-0.54 -3.54,-1.47 -0.93,-0.93 -1.46,-2.22 -1.46,-3.53 v -67.81 c 0,-1.31 0.53,-2.6 1.46,-3.53 0.94,-0.93 2.22,-1.47 3.54,-1.47 h 67.8 c 1.31,0 2.6,0.54 3.53,1.47 0.93,0.93 1.47,2.22 1.47,3.53 h -5"
         style="fill:#172c3a;fill-opacity:1;fill-rule:nonzero;stroke:none"
         id="path118" /><path
         d="m 1159.2,3014.59 h -29.93 v -109.72 h 29.93 z m -119.71,0 h -29.92 v -109.72 h 29.92 z m -119.697,0 h -29.922 v -109.72 h 29.922 z m -119.699,0 h -29.926 v -109.72 h 29.926 z M 680.391,2904.87 h -29.926 v 109.72 h 29.926 v -109.72"
         style="fill:#172c3a;fill-opacity:1;fill-rule:nonzero;stroke:none"
         id="path120" /><path
         d="m 1159.2,3014.59 v 5 h -29.93 c -1.32,0 -2.61,-0.53 -3.54,-1.46 -0.93,-0.93 -1.46,-2.22 -1.46,-3.54 v -109.72 c 0,-1.32 0.53,-2.6 1.46,-3.53 0.93,-0.94 2.22,-1.47 3.54,-1.47 h 29.93 c 1.31,0 2.6,0.53 3.53,1.47 0.93,0.93 1.47,2.21 1.47,3.53 v 109.72 c 0,1.32 -0.54,2.61 -1.47,3.54 -0.93,0.93 -2.22,1.46 -3.53,1.46 v -5 h -5 v -104.72 h -19.93 v 99.72 h 24.93 v 5 h -5 z m -119.71,0 v 5 h -29.92 c -1.32,0 -2.61,-0.53 -3.54,-1.46 -0.93,-0.93 -1.46,-2.22 -1.46,-3.54 v -109.72 c 0,-1.32 0.53,-2.6 1.46,-3.53 0.93,-0.94 2.22,-1.47 3.54,-1.47 h 29.92 c 1.32,0 2.61,0.53 3.54,1.47 0.93,0.93 1.46,2.21 1.46,3.53 v 109.72 c 0,1.32 -0.53,2.61 -1.46,3.54 -0.93,0.93 -2.22,1.46 -3.54,1.46 v -5 h -5 v -104.72 h -19.92 v 99.72 h 24.92 v 5 h -5 z m -119.697,0 v 5 h -29.922 c -1.316,0 -2.605,-0.53 -3.535,-1.46 -0.934,-0.93 -1.465,-2.22 -1.465,-3.54 v -109.72 c 0,-1.32 0.531,-2.6 1.465,-3.53 0.93,-0.94 2.219,-1.47 3.535,-1.47 h 29.922 c 1.316,0 2.602,0.53 3.535,1.47 0.93,0.93 1.465,2.21 1.465,3.53 v 109.72 c 0,1.32 -0.535,2.61 -1.465,3.54 -0.933,0.93 -2.219,1.46 -3.535,1.46 v -5 h -5 v -104.72 h -19.922 v 99.72 h 24.922 v 5 h -5 z m -119.699,0 v 5 h -29.926 c -1.316,0 -2.605,-0.53 -3.535,-1.46 -0.934,-0.93 -1.465,-2.22 -1.465,-3.54 v -109.72 c 0,-1.32 0.531,-2.6 1.465,-3.53 0.93,-0.94 2.219,-1.47 3.535,-1.47 h 29.926 c 1.316,0 2.605,0.53 3.535,1.47 0.934,0.93 1.465,2.21 1.465,3.53 v 109.72 c 0,1.32 -0.531,2.61 -1.465,3.54 -0.93,0.93 -2.219,1.46 -3.535,1.46 v -5 h -5 v -104.72 h -19.926 v 99.72 h 24.926 v 5 h -5 z M 680.391,2904.87 v 5 h -24.926 v 99.72 h 19.926 v -104.72 h 5 v 5 -5 h 5 v 109.72 c 0,1.32 -0.532,2.61 -1.461,3.54 -0.934,0.93 -2.219,1.46 -3.539,1.46 h -29.926 c -1.317,0 -2.606,-0.53 -3.535,-1.46 -0.93,-0.93 -1.465,-2.22 -1.465,-3.54 v -109.72 c 0,-1.32 0.535,-2.6 1.465,-3.53 0.929,-0.94 2.218,-1.47 3.535,-1.47 h 29.926 c 1.32,0 2.605,0.53 3.539,1.47 0.929,0.93 1.461,2.21 1.461,3.53 h -5"
         style="fill:#172c3a;fill-opacity:1;fill-rule:nonzero;stroke:none"
         id="path122" /><path
         d="m 904.832,1427.85 v 5 c -44.922,0.01 -85.547,18.2 -114.992,47.64 -29.438,29.44 -47.629,70.06 -47.629,114.98 0,44.93 18.191,85.55 47.629,115 29.445,29.43 70.07,47.63 114.992,47.63 44.922,0 85.543,-18.2 114.988,-47.63 29.44,-29.45 47.63,-70.07 47.63,-115 0,-44.92 -18.19,-85.54 -47.63,-114.98 -29.445,-29.44 -70.066,-47.63 -114.988,-47.64 v -5 -5 c 95.338,0.01 172.618,77.29 172.618,172.62 0,95.34 -77.28,172.63 -172.618,172.63 -95.34,0 -172.621,-77.29 -172.621,-172.63 0,-95.33 77.281,-172.61 172.621,-172.62 z m 0,432.57 v 5 c -149.094,0 -269.949,-120.86 -269.953,-269.95 0.004,-149.09 120.859,-269.94 269.953,-269.94 149.088,0 269.948,120.85 269.948,269.94 0,149.09 -120.86,269.95 -269.948,269.95 v -5 -5 c 71.797,0 136.758,-29.09 183.808,-76.14 47.05,-47.05 76.14,-112.01 76.14,-183.81 0,-71.8 -29.09,-136.75 -76.14,-183.81 -47.05,-47.04 -112.011,-76.13 -183.808,-76.13 -71.801,0 -136.758,29.09 -183.816,76.13 -47.047,47.06 -76.133,112.01 -76.137,183.81 0.004,71.8 29.09,136.76 76.137,183.81 47.058,47.05 112.015,76.14 183.816,76.14 v 5"
         style="fill:#172c3a;fill-opacity:1;fill-rule:nonzero;stroke:none"
         id="path124" /><path
         d="m 910.234,1860.29 h -5 v -97.47 c 0,-2.7 2.145,-4.91 4.84,-4.99 87.364,-2.8 157.386,-74.32 157.376,-162.36 0,-44.53 -17.91,-84.8 -46.91,-114.19 -0.99,-1.01 -1.51,-2.4 -1.43,-3.81 0.09,-1.41 0.77,-2.74 1.88,-3.61 l 76.44,-60.87 c 2.05,-1.64 5.04,-1.4 6.81,0.54 43.8,47.98 70.54,111.86 70.54,181.94 0,147.25 -117.9,266.87 -264.444,269.81 -1.336,0.03 -2.645,-0.49 -3.602,-1.42 -0.953,-0.94 -1.5,-2.24 -1.5,-3.57 h 5 l -0.097,-5 c 141.103,-2.84 254.653,-118.03 254.643,-259.82 0,-67.52 -25.73,-128.97 -67.93,-175.2 l 3.69,-3.37 3.12,3.91 -76.44,60.87 -3.12,-3.91 3.56,-3.52 c 30.76,31.16 49.8,73.98 49.79,121.22 0,93.47 -74.32,169.39 -167.055,172.35 l -0.161,-5 h 5 v 97.47 h -5 l -0.097,-5 0.097,5"
         style="fill:#172c3a;fill-opacity:1;fill-rule:nonzero;stroke:none"
         id="path126" /><path
         d="m 807.504,1601.29 h 189.25 c 2.762,0 4.996,2.24 4.996,5 0,2.76 -2.234,5 -4.996,5 h -189.25 c -2.766,0 -5,-2.24 -5,-5 0,-2.76 2.234,-5 5,-5"
         style="fill:#172c3a;fill-opacity:1;fill-rule:nonzero;stroke:none"
         id="path128" /><path
         d="m 807.504,1552.63 h 189.25 c 2.762,0 4.996,2.24 4.996,5 0,2.76 -2.234,5 -4.996,5 h -189.25 c -2.766,0 -5,-2.24 -5,-5 0,-2.76 2.234,-5 5,-5"
         style="fill:#172c3a;fill-opacity:1;fill-rule:nonzero;stroke:none"
         id="path130" /><path
         d="m 3308.35,2779.84 h 515.49 c 2.76,0 5,2.24 5,5 0,2.76 -2.24,5 -5,5 h -515.49 c -2.76,0 -5,-2.24 -5,-5 0,-2.76 2.24,-5 5,-5"
         style="fill:#172c3a;fill-opacity:1;fill-rule:nonzero;stroke:none"
         id="path132" /><path
         d="M 3102.92,2779.84 H 3156 c 2.76,0 5,2.24 5,5 0,2.76 -2.24,5 -5,5 h -53.08 c -2.76,0 -5,-2.24 -5,-5 0,-2.76 2.24,-5 5,-5"
         style="fill:#172c3a;fill-opacity:1;fill-rule:nonzero;stroke:none"
         id="path134" /><path
         d="m 3480.02,2698.05 h 343.82 c 2.76,0 5,2.24 5,5 0,2.77 -2.24,5 -5,5 h -343.82 c -2.76,0 -5,-2.23 -5,-5 0,-2.76 2.24,-5 5,-5"
         style="fill:#172c3a;fill-opacity:1;fill-rule:nonzero;stroke:none"
         id="path136" /><path
         d="m 3102.92,2698.05 h 57.27 c 2.76,0 5,2.24 5,5 0,2.77 -2.24,5 -5,5 h -57.27 c -2.76,0 -5,-2.23 -5,-5 0,-2.76 2.24,-5 5,-5"
         style="fill:#172c3a;fill-opacity:1;fill-rule:nonzero;stroke:none"
         id="path138" /><path
         d="m 3645.4,2616.27 h 178.44 c 2.76,0 5,2.24 5,5 0,2.76 -2.24,5 -5,5 H 3645.4 c -2.76,0 -5,-2.24 -5,-5 0,-2.76 2.24,-5 5,-5"
         style="fill:#172c3a;fill-opacity:1;fill-rule:nonzero;stroke:none"
         id="path140" /><path
         d="M 3102.92,2616.27 H 3156 c 2.76,0 5,2.24 5,5 0,2.76 -2.24,5 -5,5 h -53.08 c -2.76,0 -5,-2.24 -5,-5 0,-2.76 2.24,-5 5,-5"
         style="fill:#172c3a;fill-opacity:1;fill-rule:nonzero;stroke:none"
         id="path142" /><path
         d="m 3791.94,2534.48 h 31.9 c 2.76,0 5,2.24 5,5 0,2.76 -2.24,5 -5,5 h -31.9 c -2.76,0 -5,-2.24 -5,-5 0,-2.76 2.24,-5 5,-5"
         style="fill:#172c3a;fill-opacity:1;fill-rule:nonzero;stroke:none"
         id="path144" /><path
         d="M 3102.92,2534.48 H 3156 c 2.76,0 5,2.24 5,5 0,2.76 -2.24,5 -5,5 h -53.08 c -2.76,0 -5,-2.24 -5,-5 0,-2.76 2.24,-5 5,-5"
         style="fill:#172c3a;fill-opacity:1;fill-rule:nonzero;stroke:none"
         id="path146" /><path
         d="m 3791.94,2439.3 h 31.9 c 2.76,0 5,2.24 5,5 0,2.77 -2.24,5 -5,5 h -31.9 c -2.76,0 -5,-2.23 -5,-5 0,-2.76 2.24,-5 5,-5"
         style="fill:#172c3a;fill-opacity:1;fill-rule:nonzero;stroke:none"
         id="path148" /><path
         d="M 3102.92,2439.3 H 3156 c 2.76,0 5,2.24 5,5 0,2.77 -2.24,5 -5,5 h -53.08 c -2.76,0 -5,-2.23 -5,-5 0,-2.76 2.24,-5 5,-5"
         style="fill:#172c3a;fill-opacity:1;fill-rule:nonzero;stroke:none"
         id="path150" /><path
         d="m 3791.94,2344.13 h 31.9 c 2.76,0 5,2.24 5,5 0,2.76 -2.24,5 -5,5 h -31.9 c -2.76,0 -5,-2.24 -5,-5 0,-2.76 2.24,-5 5,-5"
         style="fill:#172c3a;fill-opacity:1;fill-rule:nonzero;stroke:none"
         id="path152" /><path
         d="M 3102.92,2344.13 H 3156 c 2.76,0 5,2.24 5,5 0,2.76 -2.24,5 -5,5 h -53.08 c -2.76,0 -5,-2.24 -5,-5 0,-2.76 2.24,-5 5,-5"
         style="fill:#172c3a;fill-opacity:1;fill-rule:nonzero;stroke:none"
         id="path154" /><path
         d="m 3289.07,2340.42 v 5 h -114.53 v 491.04 h 109.53 v -496.04 h 5 v 5 -5 h 5 v 501.04 c 0,1.32 -0.53,2.61 -1.46,3.54 -0.93,0.93 -2.22,1.46 -3.54,1.46 h -119.53 c -1.31,0 -2.6,-0.53 -3.53,-1.46 -0.93,-0.93 -1.47,-2.22 -1.47,-3.54 v -501.04 c 0,-1.32 0.54,-2.61 1.47,-3.54 0.93,-0.93 2.22,-1.46 3.53,-1.46 h 119.53 c 1.32,0 2.61,0.53 3.54,1.46 0.93,0.93 1.46,2.22 1.46,3.54 h -5"
         style="fill:#172c3a;fill-opacity:1;fill-rule:nonzero;stroke:none"
         id="path156" /><path
         d="m 3452.65,2340.42 v 5 h -114.53 v 396.67 h 109.53 v -401.67 h 5 v 5 -5 h 5 v 406.67 c 0,1.32 -0.54,2.61 -1.47,3.54 -0.93,0.93 -2.22,1.46 -3.53,1.46 h -119.53 c -1.32,0 -2.61,-0.53 -3.54,-1.46 -0.93,-0.93 -1.46,-2.22 -1.46,-3.54 v -406.67 c 0,-1.32 0.53,-2.61 1.46,-3.54 0.93,-0.93 2.22,-1.46 3.54,-1.46 h 119.53 c 1.31,0 2.6,0.53 3.53,1.46 0.93,0.93 1.47,2.22 1.47,3.54 h -5"
         style="fill:#172c3a;fill-opacity:1;fill-rule:nonzero;stroke:none"
         id="path158" /><path
         d="m 3616.22,2340.42 v 5 h -114.53 v 308.6 h 109.53 v -313.6 h 5 v 5 -5 h 5 v 318.6 c 0,1.31 -0.53,2.6 -1.46,3.53 -0.93,0.93 -2.22,1.47 -3.54,1.47 h -119.53 c -1.32,0 -2.6,-0.54 -3.53,-1.47 -0.94,-0.93 -1.47,-2.22 -1.47,-3.53 v -318.6 c 0,-1.32 0.53,-2.61 1.47,-3.54 0.93,-0.93 2.21,-1.46 3.53,-1.46 h 119.53 c 1.32,0 2.61,0.53 3.54,1.46 0.93,0.93 1.46,2.22 1.46,3.54 h -5"
         style="fill:#172c3a;fill-opacity:1;fill-rule:nonzero;stroke:none"
         id="path160" /><path
         d="m 3779.8,2340.42 v 5 h -114.54 v 195.35 h 109.54 v -200.35 h 5 v 5 -5 h 5 v 205.35 c 0,1.32 -0.54,2.61 -1.47,3.54 -0.93,0.93 -2.22,1.46 -3.53,1.46 h -119.53 c -1.32,0 -2.61,-0.53 -3.54,-1.46 -0.93,-0.93 -1.46,-2.22 -1.46,-3.54 v -205.35 c 0,-1.32 0.53,-2.61 1.46,-3.54 0.93,-0.93 2.22,-1.46 3.54,-1.46 h 119.53 c 1.31,0 2.6,0.53 3.53,1.46 0.93,0.93 1.47,2.22 1.47,3.54 h -5"
         style="fill:#172c3a;fill-opacity:1;fill-rule:nonzero;stroke:none"
         id="path162" /><path
         d="m 1083.25,3969.22 c -49.76,37.15 -111.551,59.15 -178.418,59.15 -164.914,-0.01 -298.598,-133.69 -298.602,-298.61 0.004,-164.91 133.688,-298.59 298.602,-298.6 164.908,0.01 298.598,133.69 298.598,298.6 0,78.62 -30.39,150.17 -80.06,203.48 -1.88,2.02 -5.04,2.14 -7.06,0.25 -2.03,-1.88 -2.14,-5.04 -0.26,-7.06 48.02,-51.56 77.38,-120.66 77.38,-196.67 0,-79.71 -32.3,-151.82 -84.53,-204.06 -52.24,-52.24 -124.361,-84.53 -204.068,-84.54 -79.711,0.01 -151.828,32.3 -204.07,84.54 -52.235,52.24 -84.528,124.35 -84.532,204.06 0.004,79.72 32.297,151.83 84.532,204.08 52.242,52.23 124.359,84.52 204.07,84.53 64.66,-0.01 124.318,-21.26 172.438,-57.16 2.21,-1.66 5.35,-1.2 7,1.01 1.65,2.21 1.19,5.35 -1.02,7"
         style="fill:#172c3a;fill-opacity:1;fill-rule:nonzero;stroke:none"
         id="path164" /><path
         d="m 762.938,3591.76 c 35.945,-36.96 86.257,-59.94 141.894,-59.93 109.318,0 197.938,88.62 197.938,197.93 0,109.33 -88.62,197.94 -197.938,197.94 -109.32,0 -197.934,-88.61 -197.937,-197.94 0,-40.23 12.015,-77.7 32.656,-108.94 1.519,-2.31 4.625,-2.94 6.926,-1.42 2.304,1.52 2.937,4.62 1.418,6.93 -19.598,29.67 -30.997,65.2 -31,103.43 0.003,51.92 21.027,98.87 55.046,132.9 34.024,34.02 80.977,55.04 132.891,55.04 51.914,0 98.868,-21.02 132.888,-55.04 34.02,-34.03 55.05,-80.98 55.05,-132.9 0,-51.91 -21.03,-98.86 -55.05,-132.88 -34.02,-34.02 -80.974,-55.05 -132.888,-55.05 -52.855,0 -100.566,21.8 -134.727,56.9 -1.925,1.98 -5.093,2.03 -7.07,0.1 -1.98,-1.92 -2.023,-5.09 -0.097,-7.07"
         style="fill:#172c3a;fill-opacity:1;fill-rule:nonzero;stroke:none"
         id="path166" /><path
         d="m 1005.49,3729.76 h 5 c 0,58.37 -47.299,105.67 -105.658,105.67 -58.359,0 -105.66,-47.3 -105.664,-105.67 0.004,-58.35 47.305,-105.65 105.664,-105.65 58.359,0 105.658,47.3 105.658,105.65 h -5 -5 c 0,-26.43 -10.693,-50.31 -28.013,-67.63 -17.329,-17.33 -41.211,-28.02 -67.645,-28.02 -26.434,0 -50.32,10.69 -67.644,28.02 -17.321,17.32 -28.02,41.2 -28.02,67.63 0,26.44 10.699,50.32 28.02,67.65 17.324,17.32 41.21,28.02 67.644,28.02 26.434,0 50.316,-10.7 67.645,-28.02 17.32,-17.33 28.013,-41.21 28.013,-67.65 h 5"
         style="fill:#172c3a;fill-opacity:1;fill-rule:nonzero;stroke:none"
         id="path168" /><path
         d="m 3466.53,1727.09 c 32.33,-4.56 47.16,-29.67 47.16,-65.41 v -7.22 h -27.76 v 9.12 c 0,23.58 -9.5,38.03 -30.81,38.03 -20.92,0 -30.42,-14.45 -30.42,-38.03 0,-59.71 89.37,-60.09 89.37,-135.01 0,-35.76 -15.21,-61.24 -47.54,-65.8 v -20.16 h -24.34 v 20.16 c -33.09,4.56 -47.92,29.66 -47.92,65.8 v 16.34 h 27.76 v -18.26 c 0,-23.95 9.9,-37.64 31.18,-37.64 21.68,0 31.2,13.69 31.2,37.64 0,59.34 -89,60.1 -89,135.03 0,36.52 14.84,60.47 46.78,65.41 v 21.3 h 24.34 v -21.3"
         style="fill:#172c3a;fill-opacity:1;fill-rule:nonzero;stroke:none"
         id="path170" /><path
         d="m 3553.46,1365.71 c 19.22,8.32 37.2,18.97 53.56,31.62 2.19,1.68 2.59,4.82 0.9,7.01 -1.69,2.18 -4.83,2.59 -7.01,0.9 -15.71,-12.14 -32.97,-22.37 -51.42,-30.36 -2.53,-1.09 -3.7,-4.04 -2.6,-6.57 1.09,-2.53 4.04,-3.7 6.57,-2.6"
         style="fill:#172c3a;fill-opacity:1;fill-rule:nonzero;stroke:none"
         id="path172" /><path
         d="m 3365.64,1829.66 c -94.53,-35.76 -161.73,-127.11 -161.73,-234.16 0,-138.22 112.04,-250.26 250.26,-250.26 17.36,0 34.32,1.77 50.7,5.14 2.7,0.56 4.44,3.2 3.89,5.9 -0.56,2.71 -3.2,4.45 -5.91,3.89 -15.72,-3.23 -32,-4.93 -48.68,-4.93 -66.36,0 -126.4,26.88 -169.89,70.37 -43.49,43.49 -70.37,103.53 -70.37,169.89 -0.01,102.78 64.53,190.47 155.27,224.81 2.59,0.97 3.89,3.86 2.91,6.44 -0.98,2.58 -3.86,3.89 -6.45,2.91"
         style="fill:#172c3a;fill-opacity:1;fill-rule:nonzero;stroke:none"
         id="path174" /><path
         d="m 3638.52,1426.24 c 40.92,44.55 65.92,104.01 65.91,169.26 0,138.22 -112.05,250.26 -250.26,250.26 -21.19,0 -41.77,-2.64 -61.43,-7.59 -2.67,-0.67 -4.3,-3.39 -3.62,-6.07 0.67,-2.68 3.39,-4.3 6.07,-3.63 18.86,4.76 38.63,7.29 58.98,7.29 66.36,0 126.4,-26.88 169.89,-70.37 43.49,-43.49 70.37,-103.52 70.38,-169.89 -0.01,-62.68 -23.99,-119.7 -63.29,-162.5 -1.87,-2.03 -1.73,-5.19 0.3,-7.06 2.04,-1.87 5.2,-1.73 7.07,0.3"
         style="fill:#172c3a;fill-opacity:1;fill-rule:nonzero;stroke:none"
         id="path176" /><path
         d="m 3655.26,1595.5 h 5 c -0.01,113.82 -92.27,206.08 -206.09,206.08 -113.83,0 -206.09,-92.26 -206.09,-206.08 0,-113.82 92.26,-206.09 206.09,-206.09 113.82,0 206.08,92.27 206.09,206.09 h -5 -5 c -0.01,-54.16 -21.94,-103.15 -57.44,-138.66 -35.5,-35.49 -84.49,-57.43 -138.65,-57.43 -54.17,0 -103.16,21.94 -138.66,57.43 -35.49,35.51 -57.43,84.5 -57.43,138.66 0,54.16 21.94,103.15 57.43,138.65 35.5,35.49 84.49,57.43 138.66,57.43 54.16,0 103.15,-21.94 138.65,-57.43 35.5,-35.5 57.43,-84.49 57.44,-138.65 h 5"
         style="fill:#172c3a;fill-opacity:1;fill-rule:nonzero;stroke:none"
         id="path178" /><path
         d="m 2471.52,2400.76 c 0,0 2.46,0.28 6.88,0.82 28.98,3.59 142.64,18.81 207.71,44.55 75.03,29.65 246,13.95 246,13.95 l 75.03,-54.08 -85.49,-55.83 c 0,0 -120.38,40.13 -204.13,36.63 -83.74,-3.48 -123.87,-27.91 -176.21,-24.42 -52.33,3.49 -116.88,38.38 -116.88,38.38 h 47.09"
         style="fill:#172c3a;fill-opacity:1;fill-rule:nonzero;stroke:none"
         id="path180" /><path
         d="m 2471.52,2400.76 0.56,-4.96 c 0.02,0 2.49,0.27 6.93,0.82 14.56,1.8 50.31,6.52 90.63,14.01 40.33,7.51 85.19,17.76 118.31,30.85 35.08,13.94 93.97,17.8 144.8,17.75 26.94,0 51.69,-1.03 69.69,-2.06 9.01,-0.52 16.32,-1.04 21.38,-1.43 5.05,-0.38 7.83,-0.64 7.83,-0.64 l 0.46,4.98 -2.92,-4.06 69.12,-49.82 -79.39,-51.84 2.73,-4.19 1.58,4.74 c -0.25,0.04 -110.81,37.05 -195.06,37.11 -3.67,0 -7.29,-0.07 -10.86,-0.22 -39.51,-1.64 -69.51,-7.92 -95.33,-13.72 -25.84,-5.81 -47.39,-11.05 -70.4,-11.04 -3.28,0 -6.58,0.11 -9.94,0.33 -25.22,1.66 -54.12,11.08 -76.53,20.15 -11.21,4.53 -20.81,8.95 -27.6,12.24 -3.4,1.64 -6.09,3 -7.92,3.94 -1.84,0.95 -2.78,1.46 -2.79,1.46 l -2.37,-4.4 v -5 h 47.09 l 0.56,0.04 -0.56,4.96 v 5 h -47.09 c -2.3,0 -4.29,-1.54 -4.85,-3.77 -0.56,-2.22 0.45,-4.53 2.47,-5.62 0.11,-0.06 16.39,-8.86 39.32,-18.12 22.96,-9.26 52.5,-19.03 79.61,-20.86 3.58,-0.24 7.11,-0.35 10.6,-0.35 24.57,0.01 46.9,5.53 72.59,11.28 25.71,5.77 54.88,11.88 93.56,13.49 3.42,0.14 6.9,0.21 10.44,0.21 40.75,0.01 88.88,-9.11 126.66,-18.28 18.9,-4.59 35.24,-9.17 46.83,-12.61 5.8,-1.72 10.41,-3.15 13.57,-4.14 3.16,-1 4.84,-1.56 4.84,-1.56 1.44,-0.48 3.04,-0.28 4.32,0.55 l 85.48,55.83 c 1.39,0.91 2.23,2.42 2.27,4.07 0.04,1.66 -0.73,3.21 -2.08,4.17 l -75.03,54.09 -2.46,0.92 c -0.1,0.01 -45.43,4.17 -99.82,4.17 -51.42,-0.04 -110.67,-3.59 -148.47,-18.45 -31.96,-12.65 -76.47,-22.88 -116.47,-30.31 -40.02,-7.45 -75.6,-12.14 -90.02,-13.92 -4.41,-0.55 -6.81,-0.82 -6.82,-0.82 l 0.55,-4.97 v 5 -5"
         style="fill:#172c3a;fill-opacity:1;fill-rule:nonzero;stroke:none"
         id="path182" /><path
         d="m 2150.96,2570.53 v -112.28 h 185 v 130 l -185,-17.72"
         style="fill:#ffffff;fill-opacity:1;fill-rule:nonzero;stroke:none"
         id="path184" /><path
         d="m 2150.96,2570.53 h -5 v -112.28 c 0,-1.31 0.54,-2.6 1.47,-3.53 0.93,-0.93 2.22,-1.47 3.53,-1.47 h 185 c 1.32,0 2.6,0.54 3.53,1.47 0.94,0.93 1.47,2.22 1.47,3.53 v 130 c 0,1.42 -0.59,2.76 -1.64,3.71 -1.04,0.94 -2.43,1.41 -3.84,1.27 l -184.99,-17.73 c -2.57,-0.24 -4.53,-2.39 -4.53,-4.97 h 5 l 0.48,-4.98 179.52,17.2 v -119.5 h -175 v 107.28 h -5 l 0.48,-4.98 -0.48,4.98"
         style="fill:#172c3a;fill-opacity:1;fill-rule:nonzero;stroke:none"
         id="path186" /><path
         d="m 2100.43,2679.5 c 0,0 -43.83,29.22 -29.22,-21.92 14.61,-51.13 29.22,-70.61 51.14,-68.18 21.91,2.44 34.08,9.74 26.78,29.22 -7.31,19.48 -48.7,60.88 -48.7,60.88"
         style="fill:#ffffff;fill-opacity:1;fill-rule:nonzero;stroke:none"
         id="path188" /><path
         d="m 2100.43,2679.5 2.77,4.16 c -0.12,0.08 -3.39,2.26 -8.01,4.5 -4.64,2.2 -10.5,4.59 -16.65,4.65 -3.68,0.03 -7.9,-1.06 -10.96,-4.35 -3.04,-3.28 -4.36,-7.92 -4.35,-13.56 0,-5.03 1,-11.09 3.17,-18.69 6.99,-24.41 13.96,-41.9 22.18,-53.79 4.12,-5.94 8.62,-10.5 13.69,-13.6 5.06,-3.1 10.7,-4.63 16.53,-4.62 1.35,0 2.72,0.08 4.1,0.23 9.15,1.04 16.95,2.81 23.07,6.44 3.04,1.83 5.68,4.21 7.51,7.22 1.84,3.01 2.78,6.59 2.77,10.37 0,3.73 -0.85,7.66 -2.44,11.92 -2.18,5.73 -6.32,12.12 -11.36,18.95 -15.08,20.32 -38.41,43.61 -38.49,43.71 l -0.76,0.62 -2.77,-4.16 -3.54,-3.54 c 0.01,0 2.54,-2.54 6.5,-6.69 5.94,-6.22 15.04,-16.03 23.26,-26 8.21,-9.91 15.58,-20.31 17.8,-26.4 1.29,-3.44 1.8,-6.24 1.8,-8.41 -0.01,-2.22 -0.48,-3.79 -1.31,-5.17 -1.24,-2.04 -3.61,-3.94 -7.57,-5.52 -3.92,-1.57 -9.25,-2.7 -15.58,-3.4 -1.03,-0.11 -2.02,-0.17 -2.99,-0.17 -4.16,0.02 -7.74,0.99 -11.32,3.16 -5.34,3.23 -10.72,9.5 -15.98,19.65 -5.26,10.13 -10.36,24.01 -15.48,41.94 -2.01,7.01 -2.8,12.29 -2.79,15.95 0,4.2 0.98,6.02 1.66,6.74 0.68,0.7 1.62,1.14 3.65,1.17 3.27,0.06 8.36,-1.71 12.3,-3.66 1.98,-0.96 3.72,-1.93 4.94,-2.65 l 1.42,-0.87 0.45,-0.29 2.78,4.16 -3.54,-3.54 3.54,3.54"
         style="fill:#172c3a;fill-opacity:1;fill-rule:nonzero;stroke:none"
         id="path190" /><path
         d="m 2393.19,2679.5 c 0,0 43.83,29.22 29.22,-21.92 -14.61,-51.13 -29.22,-70.61 -51.13,-68.18 -21.91,2.44 -34.09,9.74 -26.79,29.22 7.31,19.48 48.7,60.88 48.7,60.88"
         style="fill:#ffffff;fill-opacity:1;fill-rule:nonzero;stroke:none"
         id="path192" /><path
         d="m 2393.19,2679.5 2.78,-4.16 0.45,0.29 c 1.13,0.71 4.23,2.6 7.89,4.24 3.64,1.66 7.92,2.98 10.77,2.94 2.04,-0.03 2.97,-0.47 3.65,-1.17 0.68,-0.72 1.66,-2.54 1.66,-6.74 0.01,-3.66 -0.78,-8.94 -2.78,-15.95 -6.82,-23.91 -13.66,-40.61 -20.79,-50.83 -3.55,-5.12 -7.12,-8.59 -10.68,-10.76 -3.57,-2.17 -7.16,-3.14 -11.31,-3.16 -0.97,0 -1.97,0.06 -3,0.17 -8.44,0.92 -15.09,2.68 -19.03,5.08 -1.98,1.19 -3.28,2.46 -4.11,3.84 -0.83,1.39 -1.31,2.95 -1.32,5.17 0,2.18 0.52,4.97 1.81,8.4 1.47,4.02 5.24,10.1 10.02,16.51 7.17,9.68 16.59,20.39 24.19,28.61 3.79,4.12 7.14,7.62 9.53,10.09 2.39,2.47 3.81,3.89 3.81,3.89 l -3.54,3.54 2.78,-4.16 -2.78,4.16 -3.53,3.54 c -0.05,-0.05 -10.45,-10.45 -21.83,-23.37 -5.69,-6.46 -11.63,-13.55 -16.66,-20.34 -5.04,-6.82 -9.18,-13.22 -11.36,-18.95 -1.59,-4.25 -2.44,-8.19 -2.44,-11.92 -0.01,-3.78 0.93,-7.36 2.77,-10.37 2.78,-4.54 7.24,-7.56 12.42,-9.61 5.2,-2.06 11.3,-3.28 18.17,-4.05 1.37,-0.15 2.74,-0.23 4.1,-0.23 5.82,-0.01 11.46,1.52 16.52,4.62 7.62,4.67 13.9,12.53 19.64,23.59 5.75,11.07 11,25.49 16.23,43.8 2.17,7.6 3.17,13.66 3.17,18.69 0.01,5.64 -1.31,10.28 -4.35,13.56 -3.06,3.29 -7.28,4.38 -10.96,4.35 -6.15,-0.06 -12.01,-2.45 -16.65,-4.65 -4.61,-2.24 -7.88,-4.42 -8.01,-4.5 l -0.76,-0.62 3.53,-3.54"
         style="fill:#172c3a;fill-opacity:1;fill-rule:nonzero;stroke:none"
         id="path194" /><path
         d="m 2195.39,2913.26 c 0,0 -73.04,-24.35 -97.4,-92.53 -24.35,-68.18 -2.43,-150.97 9.74,-185.06 12.18,-34.09 70.62,-99.84 70.62,-99.84 h 131.49 c 0,0 48.71,46.27 75.48,107.14 26.79,60.88 26.79,146.11 26.79,146.11 0,0 21.91,-7.31 21.91,21.91 0,29.22 -68.17,85.23 -68.17,85.23 0,0 31.65,12.17 9.74,29.22 -21.92,17.04 -99.84,9.74 -99.84,9.74 0,0 -9.74,51.14 -80.36,-21.92"
         style="fill:#172c3a;fill-opacity:1;fill-rule:nonzero;stroke:none"
         id="path196" /><path
         d="m 2195.39,2913.26 -1.58,4.75 c -0.29,-0.11 -18.94,-6.33 -40.81,-21.32 -21.85,-14.98 -47.04,-38.84 -59.71,-74.28 -8.25,-23.09 -11.3,-47.62 -11.3,-71.35 0.02,-48.52 12.73,-93.77 21.03,-117.07 6.61,-18.29 24.39,-43.17 40.64,-64.1 16.25,-20.83 30.91,-37.33 30.95,-37.38 0.95,-1.07 2.31,-1.68 3.74,-1.68 h 131.49 c 1.28,0 2.52,0.5 3.44,1.38 0.23,0.25 49.29,46.73 76.62,108.75 27.35,62.37 27.15,147.8 27.21,148.12 h -5 l -1.58,-4.75 c 0.32,-0.1 3.19,-1.06 7.26,-1.07 4.02,-0.01 9.6,1.04 14.09,5.53 4.48,4.48 7.16,11.69 7.14,22.2 -0.1,9.24 -4.93,18.69 -11.52,28.46 -19.89,29.04 -58.32,60.46 -58.48,60.63 l -3.17,-3.86 1.8,-4.67 c 0.2,0.09 4.83,1.85 9.76,5.2 2.46,1.69 5.01,3.78 7.12,6.47 2.08,2.66 3.78,6.11 3.79,10.16 -0.01,5.7 -3.38,11.17 -9.66,16 -7.29,5.57 -17.81,8.3 -29.61,10.09 -11.79,1.73 -24.83,2.26 -36.67,2.26 -20.29,0 -37,-1.57 -37.1,-1.57 l 0.47,-4.98 4.91,0.93 c -0.09,0.38 -1,5.28 -4.52,10.56 -1.76,2.63 -4.24,5.37 -7.66,7.46 -3.41,2.1 -7.76,3.46 -12.82,3.45 -7.26,-0.01 -15.8,-2.65 -26.2,-8.97 -10.4,-6.35 -22.74,-16.44 -37.66,-31.87 l 3.59,-3.48 -1.58,4.75 1.58,-4.75 3.6,-3.47 c 14.5,15.01 26.3,24.57 35.68,30.28 9.38,5.72 16.25,7.52 20.99,7.51 3.33,-0.01 5.68,-0.82 7.61,-1.99 2.87,-1.73 4.84,-4.55 6.04,-7.07 0.6,-1.24 1,-2.39 1.24,-3.18 l 0.24,-0.9 0.05,-0.2 0.01,0.01 -0.01,-0.01 v 0 l 0.01,0.01 -0.01,-0.01 c 0.48,-2.53 2.81,-4.28 5.38,-4.04 0.01,0 4.04,0.38 10.62,0.76 6.58,0.39 15.65,0.77 25.54,0.77 11.53,0.01 24.19,-0.53 35.21,-2.15 11.02,-1.56 20.42,-4.48 24.93,-8.09 4.99,-3.93 5.8,-6.58 5.8,-8.11 0,-1.17 -0.49,-2.48 -1.67,-4.01 -1.75,-2.28 -4.97,-4.59 -7.73,-6.12 -1.38,-0.78 -2.63,-1.39 -3.52,-1.79 l -1.04,-0.45 -0.3,-0.12 c -1.67,-0.65 -2.86,-2.11 -3.14,-3.87 -0.29,-1.77 0.38,-3.53 1.76,-4.66 0,-0.01 1.02,-0.84 2.86,-2.41 6.43,-5.48 22.63,-19.69 37.06,-35.53 7.22,-7.91 13.99,-16.24 18.84,-23.94 4.89,-7.68 7.66,-14.8 7.58,-19.49 -0.01,-8.97 -2.2,-13.13 -4.21,-15.13 -2.01,-2.01 -4.54,-2.58 -7.02,-2.6 -1.2,0 -2.31,0.16 -3.08,0.31 l -0.85,0.2 -0.18,0.05 -0.17,-0.55 0.18,0.55 h -0.01 l -0.17,-0.55 0.18,0.55 c -1.52,0.51 -3.2,0.25 -4.5,-0.69 -1.3,-0.94 -2.08,-2.45 -2.08,-4.05 0,-0.01 0,-1.27 -0.05,-3.68 -0.32,-16.83 -3.39,-88.47 -26.31,-140.41 -13.13,-29.85 -31.76,-56.33 -47.1,-75.27 -7.66,-9.47 -14.51,-17.07 -19.42,-22.28 -2.46,-2.6 -4.43,-4.61 -5.78,-5.96 -1.35,-1.36 -2.05,-2.02 -2.05,-2.02 l 3.44,-3.63 v 5 h -131.49 v -5 l 3.74,3.32 c 0,0.01 -0.89,1.01 -2.5,2.86 -5.63,6.47 -19.93,23.18 -34.09,41.91 -14.15,18.66 -28.19,39.63 -33.06,53.43 -8.04,22.48 -20.47,66.94 -20.45,113.71 0,22.88 2.96,46.29 10.71,67.99 11.68,32.74 35.18,55.15 55.95,69.39 10.37,7.11 20.02,12.16 27.05,15.42 3.51,1.62 6.37,2.8 8.33,3.57 0.97,0.38 1.73,0.66 2.23,0.84 l 0.71,0.25 2.02,1.27 -3.6,3.47"
         style="fill:#172c3a;fill-opacity:1;fill-rule:nonzero;stroke:none"
         id="path198" /><path
         d="m 2483.46,115.75 20,-12.5 c 0,0 22.5,0 35,-12.5 12.5,-12.5 7.85,-74.6016 7.85,-74.6016 0,0 -9.97,-7.37887 -57.47,-7.37887 -47.5,0 -152.11,-11.59766 -162.11,5.90237 -10,17.5 1.73,91.0781 1.73,91.0781 l 155,10"
         style="fill:#818388;fill-opacity:1;fill-rule:nonzero;stroke:none"
         id="path200" /><path
         d="m 2483.46,115.75 -2.65,-4.23 20,-12.5005 c 0.78,-0.5 1.72,-0.7578 2.65,-0.7578 l 0.8,-0.0312 c 1.99,-0.0703 7.44,-0.4414 13.5,-2.0391 6.07,-1.582 12.65,-4.4297 17.16,-8.9726 0.91,-0.8672 2.18,-3.0391 3.17,-6.129 3.12,-9.3398 4.1,-25.9179 4.07,-39.7187 0,-6.8594 -0.21,-13.1016 -0.42,-17.6016 -0.21,-4.5078 -0.42,-7.2382 -0.42,-7.25 l 4.99,-0.3711 -2.97,4.0235 1.68,-2.293 -1.52,2.4024 -0.16,-0.1094 1.68,-2.293 -1.52,2.4024 c -0.01,0 -0.61,-0.3907 -2.28,-1.0118 -5.01,-1.8593 -19.35,-5.5078 -52.38,-5.5 C 2461.38,13.7617 2415.83,10 2380.04,10 c -13.47,0 -25.55,0.5508 -34.47,1.9492 -4.46,0.6992 -8.12,1.6328 -10.63,2.6602 -2.55,1.0195 -3.72,2.1719 -3.87,2.539 -0.96,1.6211 -1.96,5.0235 -2.52,9.3633 -0.6,4.3594 -0.86,9.6797 -0.86,15.418 0,13.4922 1.42,29.3203 2.85,41.7109 0.72,6.1992 1.43,11.5391 1.97,15.3282 0.53,3.7932 0.89,5.9922 0.89,6.0002 l -4.94,0.781 0.32,-4.988 155,10 -0.32,4.988 -2.65,-4.23 2.65,4.23 -0.32,4.988 -155,-10 c -2.34,-0.148 -4.25,-1.886 -4.62,-4.199 -0.01,-0.129 -5.81,-36.3281 -5.83,-64.6093 0,-6.0391 0.27,-11.7383 0.95,-16.7578 0.7,-5.0313 1.72,-9.3633 3.75,-12.9805 2,-3.39062 5.17,-5.33202 8.76,-6.83202 5.44,-2.21094 12.41,-3.44922 20.71,-4.25782 C 2360.15,0.300781 2369.73,0 2380.04,0 c 36.38,0.0117188 82.1,3.78125 108.8,3.76953 47.99,0.0625 58.84,7.28127 60.44,8.35937 1.17,0.8594 1.91,2.2031 2.02,3.6406 0,0.0821 0.85,11.4805 0.86,25.6016 -0.01,9.5078 -0.38,20.2305 -1.71,29.7187 -0.67,4.7618 -1.57,9.1993 -2.86,13.1211 -1.31,3.9102 -2.92,7.3594 -5.6,10.0782 -7.35,7.3009 -16.96,10.5899 -24.66,12.2929 -7.71,1.668 -13.64,1.668 -13.87,1.668 v -5 l 2.65,4.242 -20,12.5 c -0.89,0.559 -1.93,0.817 -2.97,0.746 l 0.32,-4.988"
         style="fill:#172c3a;fill-opacity:1;fill-rule:nonzero;stroke:none"
         id="path202" /><path
         d="m 1935.96,1688.25 c 0,0 -15,-110 -15,-132.5 0,-22.5 -5,-217.5 -5,-217.5 0,0 2.5,-512.5 2.5,-522.5 0,-10 -42.5,-150 -27.5,-245 15,-95 45,-460 45,-460 0,0 -10,-80 -2.5,-87.5 7.5,-7.5 100,-17.5 120,-7.5 20,10 7.5,107.5 7.5,107.5 0,0 12.5,42.5 12.5,72.5 0,30 0,55 0,80 0,25 12.5,247.5 25,335 12.5,87.5 20,205 20,205 l 52.5,540 40,2.5 c 0,0 50,-580 52.5,-622.5 2.5,-42.5 -7.5,-127.5 15,-225 22.5,-97.5 35,-362.5 35,-362.5 0,0 -5,-25 0,-35 5,-10 17.5,-40 17.5,-40 0,0 20,-2.5 52.51,0 27.39,2.1094 43.92,4.9414 80.41,21.8984 17.82,16.4416 25.66,38.9416 16.2,62.0706 -14.97,36.582 -21.62,43.531 -21.62,43.531 0,0 22.5,315 22.5,392.5 0,77.5 -12.5,172.5 -12.5,180 0,7.5 15,570 15,627.5 0,57.5 -5,212.5 -30,280 -25,67.5 -425,50 -465,47.5 -40,-2.5 -52.5,-40 -52.5,-40"
         style="fill:#172c3a;fill-opacity:1;fill-rule:nonzero;stroke:none"
         id="path204" /><path
         d="m 1935.96,1688.25 -4.95,0.68 c 0,-0.01 -3.75,-27.53 -7.51,-57.87 -1.88,-15.18 -3.75,-31.06 -5.17,-44.59 -1.41,-13.57 -2.36,-24.62 -2.37,-30.72 0,-11.07 -1.25,-65.53 -2.5,-117.06 -0.62,-25.78 -1.25,-50.86 -1.71,-69.49 -0.47,-18.63 -0.78,-30.79 -0.78,-30.82 l -0.01,-0.15 c 0,-0.02 0.04,-8.01 0.11,-22.04 0.48,-98.22 2.39,-491.741 2.39,-500.44 h 0.47 l -0.47,0.031 v -0.031 h 0.47 l -0.47,0.031 c 0.02,-0.371 -0.48,-3.179 -1.34,-6.949 -6.05,-27.113 -29.35,-114.82 -29.36,-192.883 0,-15.89 0.96,-31.398 3.26,-45.98 7.45,-47.149 18.72,-162.231 28.09,-265.289 4.69,-51.551 8.9,-100.141 11.95,-135.828 1.52,-17.852 2.75,-32.481 3.6,-42.641 0.85,-10.172 1.32,-15.852 1.32,-15.859 l 4.98,0.398 -4.96,0.629 c 0,-0.109 -5.31,-42.3673 -5.33,-68.8985 0.01,-5.0117 0.19,-9.461 0.68,-13.1602 0.24,-1.8515 0.56,-3.5195 1.04,-5.0703 0.52,-1.5391 1.09,-3.0312 2.54,-4.5312 1.78,-1.6797 3.46,-2.3204 5.62,-3.168 7.35,-2.6602 20.49,-5.0195 36.02,-6.90236 15.47,-1.84766 33.06,-3.09766 48.43,-3.09766 7.57,0 14.59,0.30078 20.63,1.00781 6.06,0.73047 11.07,1.76172 15.07,3.72271 3.63,1.8476 6.01,5.0195 7.78,8.5898 2.63,5.418 4.1,12.1992 5.05,19.8984 0.94,7.6914 1.29,16.25 1.29,24.9297 0,28.8906 -3.89,59.0818 -3.9,59.1918 l -4.96,-0.641 4.8,-1.41 c 0.03,0.242 12.65,42.699 12.7,73.91 0,30 0,55.012 0,80 0,12.102 3.12,74.16 7.8,143.73 4.68,69.622 10.94,147.129 17.15,190.571 12.54,87.801 20.04,205.32 20.04,205.39 l -4.99,0.309 4.98,-0.48 52.09,535.76 35.75,2.23 -0.32,4.99 -4.98,-0.42 c 0,-0.03 0.78,-9.07 2.16,-25.01 9.6,-111.54 48.16,-560.422 50.33,-597.359 0.32,-5.402 0.43,-11.602 0.43,-18.5 0,-15.492 -0.57,-34.473 -0.57,-56.07 0,-42.282 2.19,-94.641 15.26,-151.262 11.12,-48.09 19.91,-138.75 25.83,-217.07 2.96,-39.168 5.22,-75.317 6.75,-101.661 1.52,-26.347 2.3,-42.839 2.3,-42.878 l 4.99,0.23 -4.9,0.988 c -0.02,-0.168 -2.31,-11.418 -2.32,-22.468 0.05,-5.559 0.46,-11.032 2.75,-15.75 2.38,-4.75 6.77,-14.7778 10.5,-23.4809 3.74,-8.7305 6.85,-16.1875 6.85,-16.2071 0.7,-1.6601 2.21,-2.8125 4,-3.0429 0.18,-0.0196 9.27,-1.1485 25.07,-1.1485 7.89,0 17.47,0.2891 28.44,1.1289 27.56,2.0703 45.43,5.211 82.14,22.3516 l 1.28,0.8477 c 13.42,12.3632 21.86,28.3712 21.85,45.8322 0.01,7.16 -1.42,14.508 -4.41,21.808 -15.12,36.871 -21.83,44.2 -22.64,45.102 l -3.61,-3.461 4.99,-0.352 c 0,0.012 5.62,78.774 11.25,167.223 5.62,88.5 11.25,186.527 11.26,225.629 0,39.02 -3.14,82.25 -6.27,116.711 -1.57,17.219 -3.13,32.25 -4.31,43.43 -0.58,5.578 -1.07,10.211 -1.41,13.648 -0.34,3.383 -0.52,5.813 -0.51,6.211 0,1.621 0.93,38.371 2.34,93 4.22,164.11 12.66,491.16 12.66,534.5 0,28.89 -1.25,82.1 -5.64,136.66 -4.42,54.6 -11.85,110.34 -24.67,145.08 -2.49,6.67 -7.63,12.16 -14.45,16.84 -11.97,8.18 -29.47,14.31 -50.98,19.28 -64.43,14.81 -165.11,18.5 -250.5,18.52 -75.73,-0.01 -139.2,-2.96 -154.07,-3.89 -21.59,-1.32 -36.09,-12.3 -44.77,-22.71 -8.73,-10.43 -12.03,-20.33 -12.16,-20.69 l -0.21,-0.91 4.95,-0.68 4.75,-1.58 0.1,0.28 c 0.61,1.69 4.11,10.46 11.7,18.83 7.62,8.39 19,16.38 36.27,17.48 14.57,0.92 78,3.87 153.44,3.87 64.79,0 138.52,-2.19 197.75,-9.65 29.61,-3.73 55.6,-8.79 74.82,-15.43 9.61,-3.3 17.51,-7.01 23.25,-10.96 5.78,-3.96 9.27,-8.08 10.73,-12.07 12.17,-32.76 19.75,-88.27 24.08,-142.42 4.36,-54.19 5.61,-107.23 5.61,-135.85 0,-28.55 -3.75,-183.66 -7.5,-332.37 -1.87,-74.368 -3.75,-147.181 -5.16,-201.868 -1.4,-54.75 -2.34,-91.121 -2.34,-93.262 0.01,-1.469 0.22,-3.641 0.56,-7.199 2.4,-24.34 11.94,-105.403 11.94,-172.801 0,-38.391 -5.62,-136.609 -11.24,-224.988 -2.81,-44.211 -5.63,-86 -7.73,-116.731 -2.11,-30.742 -3.52,-50.371 -3.52,-50.422 -0.1,-1.41 0.4,-2.789 1.38,-3.808 l 1.7,1.629 -1.78,-1.551 0.08,-0.078 1.7,1.629 -1.78,-1.551 c 0.14,-0.117 6.78,-8.02 20.68,-42.047 2.53,-6.184 3.67,-12.203 3.68,-18.031 -0.01,-14.153 -6.8,-27.531 -18.64,-38.4807 l 3.39,-3.6719 -2.11,4.5313 c -36.26,-16.7891 -51.46,-19.2891 -78.69,-21.4414 -10.7,-0.8164 -20.01,-1.0977 -27.67,-1.0977 -7.66,0 -13.67,0.2813 -17.73,0.5508 -2.03,0.1289 -3.58,0.2695 -4.61,0.3672 -1.03,0.1016 -1.49,0.1602 -1.49,0.1602 l -0.62,-4.9688 4.61,1.9297 c -0.03,0.0703 -12.45,29.9223 -17.63,40.3083 -1.05,1.953 -1.74,6.473 -1.7,11.282 0,4.839 0.53,10.031 1.07,13.96 0.26,1.961 0.53,3.622 0.73,4.77 0.2,1.16 0.33,1.77 0.33,1.77 l 0.09,1.222 c 0,0.028 -3.13,66.309 -9.07,144.828 -5.96,78.559 -14.67,169.149 -26.05,218.559 -12.82,55.551 -15.01,107.09 -15.01,149.012 0,21.429 0.57,40.347 0.57,56.07 0,7.008 -0.11,13.379 -0.45,19.09 -2.51,42.758 -52.5,622.569 -52.51,622.629 -0.23,2.71 -2.58,4.73 -5.29,4.56 l -40,-2.5 c -2.45,-0.15 -4.43,-2.05 -4.66,-4.5 l -52.5,-540.002 -0.02,-0.168 c 0,-0.019 -0.46,-7.308 -1.36,-19.679 -2.69,-37.09 -9.25,-119.539 -18.6,-184.93 -6.29,-44.063 -12.53,-121.551 -17.22,-191.313 -4.69,-69.796 -7.82,-131.488 -7.83,-144.398 0,-25 0,-49.988 0,-80 0.02,-14.328 -3.04,-32.25 -6.13,-46.43 -1.55,-7.101 -3.09,-13.289 -4.25,-17.679 -1.16,-4.399 -1.91,-6.969 -1.91,-6.969 l -0.17,-2.051 c 0,-0.012 0.24,-1.832 0.6,-5.062 1.07,-9.688 3.22,-31.8402 3.22,-52.8598 0.01,-11.1992 -0.62,-22.0976 -2.25,-30.3906 -0.81,-4.1289 -1.87,-7.6094 -3.07,-10.0273 -1.2,-2.461 -2.46,-3.6719 -3.27,-4.0508 -2.02,-1.0508 -6.31,-2.1211 -11.77,-2.7383 -5.47,-0.6406 -12.17,-0.9414 -19.46,-0.9414 -16.95,0 -37.13,1.5976 -53.57,3.8398 -8.22,1.1211 -15.51,2.3985 -20.93,3.6914 -2.71,0.6368 -4.95,1.2891 -6.51,1.8594 l -1.75,0.75 -0.35,0.1992 -0.01,0.0078 -0.93,-1.1601 1.05,1.0508 -0.12,0.1093 -0.93,-1.1601 1.05,1.0508 -1.22,-1.2188 1.42,0.9883 -0.2,0.2305 -1.22,-1.2188 1.42,0.9883 -0.02,-0.0078 0.02,0.0078 v 0 l -0.02,-0.0078 0.02,0.0078 c -0.21,0.293 -0.81,2.3828 -1.08,5.2031 -0.3,2.8594 -0.45,6.5469 -0.45,10.7188 0,12.6601 1.31,29.6601 2.63,43.3984 1.31,13.75 2.62,24.2301 2.62,24.2501 l 0.03,1.031 c 0,0.012 -7.5,91.27 -16.88,194.422 -9.39,103.188 -20.62,218.098 -28.17,265.949 -2.2,13.93 -3.14,28.938 -3.14,44.418 -0.01,43.879 7.6,91.449 15.25,129.051 3.82,18.809 7.65,35.121 10.52,47.301 1.44,6.09 2.64,11.14 3.5,14.988 0.42,1.93 0.76,3.563 1.01,4.902 0.24,1.379 0.41,2.34 0.42,3.559 0,10.059 -2.5,522.52 -2.5,522.53 l -5,-0.03 5,-0.12 c 0,0.05 5,194.9 5,217.62 -0.01,5.16 0.92,16.29 2.32,29.68 2.1,20.14 5.26,45.7 7.9,66.2 2.63,20.5 4.73,35.91 4.74,35.95 l -4.96,0.67 4.75,-1.58 -4.75,1.58"
         style="fill:#172c3a;fill-opacity:1;fill-rule:nonzero;stroke:none"
         id="path206" /><path
         d="m 2083.7,1354.54 215,10 c 2.75,0.13 4.89,2.47 4.76,5.23 -0.13,2.75 -2.47,4.89 -5.23,4.76 l -215,-10 c -2.76,-0.13 -4.89,-2.47 -4.76,-5.23 0.13,-2.76 2.47,-4.89 5.23,-4.76"
         style="fill:#727278;fill-opacity:1;fill-rule:nonzero;stroke:none"
         id="path208" /><path
         d="m 2208.46,2463.25 -135,-32.5 c 0,0 -195,-95 -237.5,-120 -42.5,-25 -210,-362.5 -202.5,-380 7.5,-17.5 40,-40 72.5,-45 32.5,-5 197.5,182.5 197.5,182.5 0,0 47.5,-235 47.5,-245 0,-10 -27.5,-130 -15,-150 12.5,-20 492.5,0 492.5,0 0,0 35,-2.5 40,30 5,32.5 -10,127.5 -10,127.5 l 55,287.5 c 0,0 105.06,-159.35 128.61,-185 40.95,-44.58 91.76,-25.89 118.89,7.5 23.65,29.11 2.5,85 -5,102.5 -7.5,17.5 -140,315 -180,327.5 -40,12.5 -207.5,72.5 -207.5,72.5 l -160,20"
         style="fill:#ffffff;fill-opacity:1;fill-rule:nonzero;stroke:none"
         id="path210" /><path
         d="m 2208.46,2463.25 -1.17,4.87 -135,-32.5 -1.02,-0.37 c 0,0 -48.76,-23.76 -102.84,-50.64 -54.13,-26.91 -113.4,-56.85 -135,-69.55 -6.5,-3.92 -13.51,-11.89 -22.12,-23.35 -29.77,-39.95 -75.24,-122.35 -113.52,-198.44 -19.13,-38.02 -36.42,-74.41 -48.95,-103.04 -6.27,-14.32 -11.35,-26.69 -14.9,-36.42 -1.78,-4.87 -3.17,-9.07 -4.14,-12.59 -0.96,-3.55 -1.56,-6.29 -1.58,-8.87 0.02,-1.07 0.07,-2.17 0.65,-3.56 v 0 c 4.53,-10.35 15.12,-20.58 28.76,-29.43 13.67,-8.77 30.46,-15.9 47.57,-18.55 l 2.11,-0.15 c 3.29,0.02 6.52,0.97 10.02,2.45 12.93,5.61 30.49,19.55 50.54,37.56 59.86,53.94 139.28,144.21 139.35,144.28 l -3.76,3.3 -4.9,-0.99 c 0.01,-0.03 2.97,-14.68 7.42,-36.86 6.68,-33.28 16.7,-83.43 25.05,-126.19 4.17,-21.38 7.93,-40.91 10.63,-55.54 1.36,-7.32 2.45,-13.41 3.2,-17.88 0.37,-2.23 0.66,-4.05 0.85,-5.39 l 0.2,-1.61 0.05,-0.45 v -0.11 l 0.46,0.02 h -0.46 v -0.02 l 0.46,0.02 h -0.46 c 0.03,-0.24 -0.22,-2.5 -0.72,-5.45 -1.71,-10.6 -6.1,-32.72 -10.04,-56.58 -3.94,-23.91 -7.48,-49.53 -7.49,-67.9 0,-4.79 0.23,-9.1 0.82,-12.87 0.6,-3.77 1.46,-7.02 3.19,-9.85 0.94,-1.45 2.04,-2.23 3.11,-2.87 2.02,-1.15 4.25,-1.84 7.05,-2.52 9.67,-2.26 26.27,-3.64 48.27,-4.57 21.94,-0.9 49.08,-1.27 79.05,-1.27 146.1,0 359.43,8.89 359.47,8.89 l -0.21,4.99 -0.36,-4.98 c 0.11,-0.01 0.85,-0.06 2.07,-0.06 3.98,0.02 13.12,0.47 22.38,4.97 9.25,4.41 18.54,13.63 20.85,29.31 0.77,5.06 1.08,11.17 1.08,18.06 -0.02,41.15 -11.08,110.85 -11.08,110.98 l -4.94,-0.78 4.91,-0.93 55,287.5 -4.91,0.93 -4.18,-2.75 c 0.01,-0.01 26.28,-39.86 55.51,-82.94 14.62,-21.54 29.98,-43.88 43.17,-62.47 13.23,-18.63 24.15,-33.36 30.43,-40.22 17.94,-19.6 38.41,-27.95 58.02,-27.9 27.09,0.05 51.93,15.36 68.43,35.63 9.02,11.13 12,25.29 12,39.43 -0.05,27.64 -11.23,56.31 -16.29,68.19 -3.81,8.89 -38.8,87.62 -77.93,165.9 -19.57,39.13 -40.15,78.12 -58.44,108.24 -9.15,15.08 -17.72,27.93 -25.4,37.57 -3.85,4.82 -7.47,8.85 -10.93,11.99 -3.49,3.12 -6.75,5.44 -10.4,6.61 -19.8,6.18 -71.74,24.33 -118.58,40.88 -23.43,8.28 -45.61,16.16 -61.94,21.98 -16.32,5.82 -26.76,9.56 -26.79,9.57 l -1.06,0.26 -160,20 -1.79,-0.1 1.17,-4.87 -0.62,-4.96 160,-20 0.62,4.96 -1.69,-4.7 c 0.06,-0.02 167.41,-59.98 207.7,-72.57 1.35,-0.39 3.81,-1.86 6.66,-4.48 5.42,-4.88 12.33,-13.48 19.96,-24.64 26.83,-39.14 63,-109.63 93.06,-171.92 30.08,-62.3 54.19,-116.6 57.21,-123.65 4.87,-11.26 15.53,-39.3 15.48,-64.26 0.01,-12.81 -2.75,-24.52 -9.76,-33.12 -14.97,-18.47 -37.53,-32 -60.67,-31.94 -16.79,0.04 -34.2,6.82 -50.66,24.67 -5.49,5.96 -16.54,20.77 -29.63,39.23 -19.7,27.75 -44.33,64.05 -64.03,93.4 -9.85,14.67 -18.46,27.61 -24.62,36.88 -6.15,9.26 -9.83,14.84 -9.84,14.86 -1.12,1.7 -3.15,2.55 -5.15,2.15 -2,-0.4 -3.55,-1.96 -3.93,-3.97 l -55,-287.5 -0.03,-1.72 c 0,-0.01 0.68,-4.32 1.71,-11.47 3.09,-21.4 9.26,-68.24 9.25,-97.95 0,-6.58 -0.31,-12.3 -0.96,-16.54 -2.02,-12.48 -8.33,-18.28 -15.37,-21.85 -7.04,-3.48 -14.87,-3.97 -17.98,-3.95 l -1.07,0.02 -0.29,0.01 -0.56,0.01 c -0.04,0 -13.32,-0.55 -35.59,-1.39 -66.81,-2.5 -214.15,-7.49 -323.46,-7.49 -36.42,0 -68.63,0.55 -92.12,1.93 -11.74,0.69 -21.31,1.59 -27.99,2.69 -3.33,0.54 -5.95,1.15 -7.6,1.71 l -1.63,0.68 -0.11,0.07 -0.43,-0.62 0.52,0.53 -0.09,0.09 -0.43,-0.62 0.52,0.53 -1.73,-1.76 2.09,1.3 -0.36,0.46 -1.73,-1.76 2.09,1.3 c -0.58,0.88 -1.34,3.05 -1.79,6.08 -0.47,3.03 -0.71,6.9 -0.7,11.34 -0.02,19.62 4.5,50.02 9.05,76.29 2.28,13.15 4.55,25.31 6.27,34.72 0.86,4.71 1.57,8.72 2.08,11.87 0.51,3.21 0.83,5.26 0.85,7.05 -0.02,1.4 -0.23,2.75 -0.59,5.16 -2.65,17.31 -14.38,77.34 -25.48,133.29 -11.09,55.9 -21.52,107.54 -21.53,107.55 -0.37,1.86 -1.77,3.35 -3.61,3.84 -1.83,0.49 -3.79,-0.11 -5.04,-1.53 -0.01,-0.01 -2.49,-2.84 -6.95,-7.82 -15.58,-17.43 -55.08,-61.08 -94.46,-100.27 -19.69,-19.59 -39.36,-38.08 -55.89,-51.55 -8.25,-6.73 -15.73,-12.21 -21.91,-15.9 -6.11,-3.74 -11.14,-5.46 -13.19,-5.36 l -0.59,0.04 c -15.38,2.35 -31.09,8.97 -43.68,17.07 -12.6,8.03 -22.01,17.8 -24.98,24.95 l -2.01,-0.86 2.17,0.33 -0.16,0.53 -2.01,-0.86 2.17,0.33 v 0.16 c -0.04,0.88 0.47,3.78 1.62,7.6 4.27,14.58 16.6,43.87 33.18,79.42 24.88,53.4 59.41,121.35 91.31,178 15.94,28.31 31.24,53.81 44.3,73.19 6.52,9.69 12.49,17.85 17.63,24.02 5.1,6.16 9.55,10.33 12.24,11.87 20.9,12.3 80.38,42.36 134.38,69.2 27.02,13.43 52.71,26.09 71.65,35.38 18.94,9.3 31.09,15.21 31.12,15.23 l -2.19,4.49 1.17,-4.86 135,32.5 -1.17,4.86 -0.62,-4.96 0.62,4.96"
         style="fill:#172c3a;fill-opacity:1;fill-rule:nonzero;stroke:none"
         id="path212" /><path
         d="m 2073.46,2430.75 c 0,0 165.23,3.41 192.73,3.41 27.5,0 127.89,0.87 127.89,0.87 l -25.4,54.13 c 0,0 -52.49,15 -132.49,15 -80,0 -140,-25 -140,-25 l -22.73,-48.41"
         style="fill:#ffffff;fill-opacity:1;fill-rule:nonzero;stroke:none"
         id="path214" /><path
         d="m 2073.46,2430.75 0.11,-4.99 c 0.02,0 10.32,0.21 26.24,0.53 47.73,0.96 145.9,2.87 166.38,2.87 27.56,0 127.93,0.87 127.94,0.87 1.7,0.01 3.28,0.89 4.19,2.33 0.9,1.45 1.01,3.25 0.29,4.79 l -25.4,54.14 c -0.62,1.31 -1.76,2.28 -3.15,2.68 -0.33,0.09 -53.25,15.19 -133.87,15.19 -81.04,-0.02 -141.56,-25.24 -141.93,-25.38 -1.14,-0.48 -2.07,-1.37 -2.6,-2.49 l -22.72,-48.41 c -0.73,-1.56 -0.61,-3.41 0.33,-4.85 0.94,-1.44 2.58,-2.31 4.3,-2.27 l -0.11,4.99 4.53,-2.12 22.72,48.41 -4.52,2.12 1.92,-4.61 0.62,0.25 c 6.52,2.61 63.43,24.38 137.46,24.36 39.69,0 72.55,-3.72 95.45,-7.43 11.44,-1.86 20.4,-3.71 26.48,-5.1 3.04,-0.69 5.36,-1.27 6.9,-1.66 1.55,-0.4 2.29,-0.62 2.29,-0.61 l 1.37,4.8 -4.52,-2.12 25.4,-54.14 4.52,2.13 -0.04,5 c -0.05,0 -25.1,-0.22 -53.63,-0.44 -28.53,-0.21 -60.51,-0.43 -74.22,-0.43 -27.67,0 -192.8,-3.41 -192.83,-3.41 l 0.1,-5 4.53,-2.12 -4.53,2.12"
         style="fill:#172c3a;fill-opacity:1;fill-rule:nonzero;stroke:none"
         id="path216" /><path
         d="m 1847.95,2198.28 42.35,-109.79 -70.8,70.8 c -1.95,1.95 -5.12,1.95 -7.07,0 -1.95,-1.95 -1.95,-5.12 0,-7.07 l 87.5,-87.5 c 1.66,-1.67 4.29,-1.94 6.26,-0.66 1.97,1.29 2.79,3.8 1.94,5.99 l -50.85,131.83 c -0.99,2.57 -3.88,3.85 -6.46,2.86 -2.58,-0.99 -3.86,-3.89 -2.87,-6.46"
         style="fill:#172c3a;fill-opacity:1;fill-rule:nonzero;stroke:none"
         id="path218" /><path
         d="m 1831.3,2241.46 6.07,-15.74 c 0.99,-2.57 3.89,-3.86 6.46,-2.86 2.58,0.99 3.86,3.89 2.87,6.46 l -6.07,15.73 c -1,2.58 -3.89,3.86 -6.47,2.87 -2.57,-0.99 -3.86,-3.89 -2.86,-6.46"
         style="fill:#172c3a;fill-opacity:1;fill-rule:nonzero;stroke:none"
         id="path220" /><path
         d="m 2114.11,1848.89 c -8.5,-7.07 -17.12,-13.41 -25.82,-18.91 -2.33,-1.47 -3.03,-4.56 -1.55,-6.9 1.47,-2.33 4.56,-3.03 6.89,-1.55 9.12,5.75 18.08,12.36 26.87,19.68 2.13,1.77 2.42,4.92 0.65,7.04 -1.77,2.12 -4.92,2.41 -7.04,0.64"
         style="fill:#172c3a;fill-opacity:1;fill-rule:nonzero;stroke:none"
         id="path222" /><path
         d="m 2341.26,2224.97 c 0,-0.01 -1.4,-3.84 -4.13,-10.87 -9.54,-24.58 -35.12,-87.76 -71.62,-157.26 -36.47,-69.5 -83.96,-145.32 -136.8,-195 -2.01,-1.9 -2.1,-5.06 -0.21,-7.07 1.89,-2.01 5.06,-2.11 7.07,-0.22 62.01,58.41 115.55,150.02 153.86,227.15 38.28,77.11 61.18,139.72 61.22,139.84 0.95,2.59 -0.38,5.46 -2.97,6.41 -2.6,0.95 -5.47,-0.38 -6.42,-2.98"
         style="fill:#172c3a;fill-opacity:1;fill-rule:nonzero;stroke:none"
         id="path224" /><path
         d="m 2566.32,2262.63 -57.5,-142.5 c -0.9,-2.24 -0.08,-4.81 1.96,-6.1 2.04,-1.29 4.71,-0.94 6.35,0.83 l 92.5,100 c 1.87,2.03 1.75,5.19 -0.28,7.07 -2.02,1.87 -5.19,1.75 -7.06,-0.28 l -74,-80 47.31,117.23 c 1.03,2.56 -0.21,5.48 -2.77,6.51 -2.56,1.03 -5.47,-0.2 -6.51,-2.76"
         style="fill:#172c3a;fill-opacity:1;fill-rule:nonzero;stroke:none"
         id="path226" /><path
         d="m 1610.96,1868.25 c 0,0 17.5,-57.5 72.5,-100 55,-42.5 202.5,-182.5 202.5,-182.5 0,0 -2.5,-10 0,-22.5 2.5,-12.5 42.5,-45 42.5,-45 v 25 l 10,20 10,25 c 0,0 25,10 32.5,15 7.5,5 12.5,12.5 12.5,12.5 0,0 27.5,-5 45,-5 17.5,0 42.5,17.5 27.5,22.5 -15,5 -30,0 -50,10 -20,10 -30,20 -50,20 -20,0 -52.5,0 -52.5,0 l -137.5,225 -165,-20"
         style="fill:#ffffff;fill-opacity:1;fill-rule:nonzero;stroke:none"
         id="path228" /><path
         d="m 1610.96,1868.25 -4.78,-1.45 c 0.19,-0.5 17.91,-58.92 74.23,-102.5 27.18,-21 77.85,-66.64 121.54,-106.91 21.86,-20.14 42.01,-38.96 56.68,-52.74 14.68,-13.78 23.87,-22.5 23.89,-22.52 l 3.44,3.62 -4.85,1.22 c -0.07,-0.29 -1.25,-5.1 -1.26,-12.33 0,-3.61 0.3,-7.82 1.21,-12.37 0.55,-2.59 1.73,-4.84 3.23,-7.23 5.28,-8.17 15.36,-18.01 24.33,-26.21 8.93,-8.15 16.64,-14.42 16.69,-14.46 1.5,-1.21 3.56,-1.46 5.3,-0.63 1.74,0.83 2.85,2.59 2.85,4.51 v 23.82 l 9.48,18.95 0.17,0.38 10,25 -4.65,1.85 1.86,-4.64 c 0.03,0.01 6.31,2.53 13.57,5.68 7.32,3.21 15.38,6.86 19.85,9.8 8.51,5.73 13.67,13.63 13.88,13.89 l -4.16,2.77 -0.89,-4.91 c 0.15,-0.02 27.59,-5.06 45.89,-5.09 8.16,0.05 16.71,3.02 23.67,6.93 3.48,1.98 6.54,4.2 8.95,6.68 2.32,2.49 4.37,5.24 4.48,9.24 0.04,2.16 -0.91,4.51 -2.46,6.09 -1.54,1.6 -3.43,2.59 -5.56,3.31 -8.49,2.8 -16.46,2.74 -24.32,3.36 -7.9,0.62 -15.77,1.76 -25.02,6.37 -9.7,4.84 -17.1,9.78 -25,13.75 -7.87,3.96 -16.39,6.8 -27.24,6.77 -20,0 -52.44,0 -52.5,0 v -5 l 4.27,2.61 -137.5,225 c -1.02,1.67 -2.92,2.59 -4.87,2.36 l -165,-20 c -1.47,-0.18 -2.78,-0.99 -3.59,-2.24 -0.81,-1.24 -1.02,-2.76 -0.59,-4.18 l 4.78,1.45 0.6,-4.96 161.81,19.61 135.83,-222.25 c 0.9,-1.49 2.53,-2.4 4.26,-2.4 0,0 32.5,0 52.5,0 9.16,-0.02 15.64,-2.18 22.77,-5.72 7.1,-3.53 14.7,-8.59 25,-13.75 10.75,-5.39 20.38,-6.75 28.72,-7.39 8.39,-0.62 15.42,-0.68 21.93,-2.88 l 1.16,-0.5 0.29,-0.19 0.15,0.16 -0.17,-0.13 0.02,-0.03 0.15,0.16 -0.17,-0.13 0.98,0.75 h -1.23 l 0.25,-0.75 0.98,0.75 h -1.23 0.61 l -0.6,0.09 -0.01,-0.09 h 0.61 l -0.6,0.09 -0.41,-0.82 c -1.16,-1.97 -5.47,-5.47 -10.66,-7.91 -5.18,-2.52 -11.31,-4.23 -16.04,-4.21 -8.29,0 -19.44,1.22 -28.38,2.46 -4.47,0.62 -8.42,1.23 -11.24,1.7 -2.81,0.46 -4.48,0.76 -4.48,0.76 -1.96,0.36 -3.95,-0.48 -5.06,-2.14 l -0.15,-0.23 c -0.85,-1.24 -5.3,-7.15 -10.96,-10.89 -3.03,-2.05 -11.23,-5.9 -18.28,-8.94 -7.11,-3.1 -13.29,-5.57 -13.3,-5.57 -1.28,-0.51 -2.28,-1.51 -2.79,-2.79 l -9.92,-24.81 -9.91,-19.81 -0.53,-2.24 v -25 h 5 l 3.16,3.89 c -0.01,0 -2.45,1.98 -6.19,5.19 -5.62,4.8 -14.13,12.33 -21.35,19.69 -3.61,3.68 -6.89,7.33 -9.29,10.47 -2.42,3.09 -3.83,5.91 -3.92,6.75 -0.76,3.78 -1.02,7.35 -1.02,10.4 0,3.06 0.26,5.61 0.51,7.35 l 0.33,1.99 0.1,0.47 0.02,0.09 c 0.44,1.75 -0.1,3.6 -1.4,4.84 -0.02,0.01 -36.9,35.02 -80.68,75.36 -43.81,40.36 -94.39,85.97 -122.21,107.47 -26.84,20.73 -44.58,45.19 -55.59,64.46 -5.5,9.63 -9.32,17.96 -11.75,23.84 -1.22,2.95 -2.08,5.28 -2.64,6.86 l -0.62,1.79 -0.17,0.55 -4.79,-1.46 0.6,-4.96 -0.6,4.96"
         style="fill:#172c3a;fill-opacity:1;fill-rule:nonzero;stroke:none"
         id="path230" /><path
         d="m 1670.12,2021.92 c 0,0 -29.16,-8.67 -36.66,-16.17 -7.5,-7.5 -45,-65 -37.5,-95 7.5,-30 17.5,-72.5 82.5,-85 65,-12.5 100,15 105,22.5 5,7.5 17.32,95.96 7.32,95.96 -10,0 -37.32,-33.46 -37.32,-33.46 0,0 -74.47,16.87 -89.47,29.37 -15,12.5 6.13,81.8 6.13,81.8"
         style="fill:#ffffff;fill-opacity:1;fill-rule:nonzero;stroke:none"
         id="path232" /><path
         d="m 1670.12,2021.92 -1.42,4.79 c -0.07,-0.02 -7.44,-2.21 -15.86,-5.38 -4.21,-1.59 -8.68,-3.42 -12.69,-5.4 -4.03,-2.01 -7.55,-4.02 -10.22,-6.64 -2.27,-2.31 -5.46,-6.6 -9.54,-12.75 -6.02,-9.17 -13.53,-22.07 -19.61,-35.82 -6.05,-13.77 -10.76,-28.29 -10.8,-41.24 0,-3.43 0.34,-6.76 1.13,-9.94 3.76,-14.96 8.23,-33.85 20.49,-50.78 12.25,-16.97 32.45,-31.54 65.92,-37.92 12.05,-2.31 23.14,-3.3 33.25,-3.3 22.92,0 40.82,5.07 53.56,11.02 6.38,2.98 11.48,6.18 15.32,9.11 3.85,2.97 6.39,5.49 7.97,7.81 1.07,1.69 1.51,3.17 2.16,5.29 2.09,7.17 4.46,20.4 6.41,35 1.94,14.57 3.39,30.27 3.4,42.03 -0.01,5.08 -0.26,9.4 -0.99,12.91 -0.39,1.77 -0.84,3.35 -1.83,4.97 -0.5,0.8 -1.18,1.64 -2.2,2.35 -1.01,0.71 -2.43,1.2 -3.79,1.18 -2.64,-0.04 -4.73,-0.93 -6.84,-2.03 -7.14,-3.92 -15.25,-12.04 -22.18,-19.41 -6.85,-7.33 -12.13,-13.8 -12.17,-13.85 l 3.87,-3.17 1.11,4.88 c -0.01,0 -4.6,1.04 -11.78,2.81 -10.77,2.65 -27.28,6.92 -42.4,11.67 -7.56,2.37 -14.77,4.86 -20.67,7.28 -5.89,2.39 -10.55,4.87 -12.53,6.57 -0.8,0.64 -1.83,2.24 -2.52,4.96 -0.7,2.69 -1.06,6.32 -1.06,10.45 -0.01,11.66 2.79,27.11 5.63,39.45 1.42,6.19 2.84,11.61 3.91,15.49 1.06,3.87 1.76,6.14 1.76,6.15 0.53,1.75 0.05,3.68 -1.24,4.98 -1.29,1.3 -3.21,1.79 -4.97,1.27 l 1.42,-4.79 -4.78,1.46 c -0.02,-0.08 -2.93,-9.61 -5.85,-22.32 -2.91,-12.73 -5.86,-28.55 -5.88,-41.69 0.01,-4.68 0.37,-9.04 1.38,-12.95 1.01,-3.88 2.67,-7.5 5.8,-10.14 4.83,-3.94 12.45,-7.24 21.79,-10.72 27.79,-10.19 69.68,-19.65 69.78,-19.68 1.85,-0.42 3.78,0.24 4.98,1.71 0,0.01 1.65,2.03 4.33,5.12 4.01,4.63 10.28,11.6 16.33,17.27 3.02,2.83 5.99,5.34 8.45,7.02 1.22,0.83 2.31,1.46 3.12,1.81 l 0.95,0.35 0.23,0.05 h 0.03 v 3.32 l -1.88,-2.74 1.88,-0.58 v 3.32 l -1.88,-2.74 1.24,1.81 -1.83,-1.25 0.59,-0.56 1.24,1.81 -1.83,-1.25 0.09,0.06 -0.1,-0.05 0.01,-0.01 0.09,0.06 -0.1,-0.05 c 0.14,-0.19 0.64,-1.78 0.88,-4 0.27,-2.24 0.41,-5.19 0.41,-8.56 0,-12.53 -1.85,-30.97 -4.15,-46.74 -1.15,-7.9 -2.42,-15.16 -3.6,-20.69 -0.59,-2.76 -1.16,-5.09 -1.66,-6.79 l -0.66,-2.02 -0.21,-0.51 -0.01,-0.02 c -0.46,-0.75 -2.49,-2.98 -5.71,-5.41 -9.77,-7.44 -30.68,-18.08 -62.82,-18.08 -9.46,0 -19.91,0.92 -31.36,3.12 -31.53,6.12 -48.84,19.06 -59.71,33.97 -10.86,14.94 -15.15,32.3 -18.89,47.34 -0.55,2.23 -0.83,4.75 -0.83,7.51 -0.08,13.99 7.49,33.55 16.11,49.98 4.3,8.23 8.82,15.75 12.66,21.58 3.78,5.78 7.11,10.08 8.25,11.18 1.08,1.13 4.02,3.02 7.57,4.74 5.35,2.64 12.16,5.22 17.57,7.1 2.71,0.94 5.07,1.71 6.76,2.24 1.68,0.54 2.64,0.82 2.65,0.82 l -1.43,4.8 -4.78,1.46 4.78,-1.46"
         style="fill:#172c3a;fill-opacity:1;fill-rule:nonzero;stroke:none"
         id="path234" /><path
         d="m 2817.07,1868.25 c 0,0 -17.5,-57.5 -72.5,-100 -55,-42.5 -202.5,-182.5 -202.5,-182.5 0,0 2.5,-10 0,-22.5 -2.5,-12.5 -57.57,-50.95 -57.57,-50.95 v 36.44 l -3.83,23.01 -1.1,16.5 c 0,0 -25,10 -32.5,15 -7.5,5 -12.5,12.5 -12.5,12.5 0,0 -27.5,-5 -45,-5 -17.5,0 -42.5,17.5 -27.5,22.5 15,5 30,0 50,10 20,10 30,20 50,20 20,0 52.5,0 52.5,0 l 137.5,225 165,-20"
         style="fill:#ffffff;fill-opacity:1;fill-rule:nonzero;stroke:none"
         id="path236" /><path
         d="m 2817.07,1868.25 -4.78,1.46 -0.18,-0.55 c -1.93,-5.98 -20.27,-58.11 -70.6,-96.95 -27.81,-21.5 -78.39,-67.11 -122.2,-107.47 -43.78,-40.34 -80.67,-75.35 -80.68,-75.36 -1.31,-1.24 -1.85,-3.09 -1.41,-4.84 l 0.02,-0.09 c 0.16,-0.67 0.94,-4.46 0.94,-9.81 0,-3.05 -0.25,-6.62 -1.01,-10.41 0.04,-0.11 -0.69,-1.77 -2.24,-3.69 -5.39,-7.02 -18.95,-18.42 -30.88,-27.6 -5.98,-4.62 -11.59,-8.77 -15.7,-11.75 -4.12,-2.98 -6.7,-4.79 -6.71,-4.79 l 2.86,-4.1 h 5 v 36.44 l -0.06,0.83 -3.8,22.76 -1.08,16.26 c -0.13,1.92 -1.34,3.59 -3.13,4.31 -0.01,0 -6.19,2.47 -13.3,5.57 -7.06,3.04 -15.25,6.89 -18.28,8.94 -3.23,2.15 -6.09,4.98 -8.08,7.26 -0.99,1.14 -1.78,2.14 -2.3,2.83 l -0.58,0.8 -0.16,0.23 c -1.1,1.66 -3.09,2.5 -5.05,2.14 -0.01,0 -1.67,-0.3 -4.49,-0.76 -8.42,-1.4 -27.14,-4.17 -39.62,-4.16 -5.58,-0.04 -13.09,2.39 -18.73,5.63 -2.83,1.6 -5.22,3.4 -6.69,4.93 l -1.47,1.89 -0.2,0.45 -0.01,0.04 -0.6,-0.09 h 0.6 v 0.09 l -0.6,-0.09 h 0.6 -1.11 l 0.83,-0.79 0.28,0.79 h -1.11 l 0.83,-0.79 0.3,0.2 1.16,0.5 c 6.51,2.2 13.54,2.26 21.93,2.88 8.35,0.64 17.98,2 28.73,7.39 10.3,5.16 17.9,10.22 25,13.75 7.13,3.54 13.61,5.7 22.76,5.72 20,0 52.5,0 52.5,0 1.74,0 3.36,0.91 4.27,2.4 l 135.82,222.25 161.81,-19.61 0.6,4.96 -4.78,1.46 4.78,-1.46 0.6,4.97 -165,20 c -1.94,0.23 -3.84,-0.69 -4.86,-2.36 l -137.5,-225 4.26,-2.61 v 5 c 0,0 -32.5,0 -52.5,0 -10.84,0.03 -19.37,-2.81 -27.23,-6.77 -7.9,-3.97 -15.3,-8.91 -25,-13.75 -9.26,-4.61 -17.12,-5.75 -25.03,-6.37 -7.86,-0.62 -15.83,-0.56 -24.32,-3.36 -2.12,-0.72 -4.02,-1.71 -5.56,-3.31 -1.55,-1.58 -2.5,-3.93 -2.46,-6.09 0.11,-4 2.16,-6.75 4.49,-9.24 3.6,-3.7 8.7,-6.91 14.43,-9.41 5.74,-2.47 12.06,-4.18 18.18,-4.2 18.31,0.03 45.75,5.07 45.9,5.09 l -0.9,4.91 -4.16,-2.77 c 0.21,-0.26 5.37,-8.16 13.89,-13.89 4.46,-2.94 12.52,-6.59 19.84,-9.8 7.26,-3.15 13.55,-5.67 13.57,-5.68 l 1.86,4.64 -4.99,-0.33 1.1,-16.5 0.05,-0.49 3.77,-22.6 v -36.03 c 0,-1.87 1.04,-3.57 2.69,-4.44 1.66,-0.86 3.65,-0.73 5.18,0.34 0.04,0.03 13.86,9.68 28.09,20.97 7.12,5.65 14.33,11.7 20.05,17.27 2.86,2.78 5.35,5.44 7.32,7.97 1.94,2.57 3.48,4.86 4.14,7.86 0.91,4.55 1.21,8.76 1.21,12.37 0,7.23 -1.19,12.04 -1.26,12.33 l -4.85,-1.22 3.44,-3.62 c 0.03,0.02 9.21,8.74 23.89,22.52 43.99,41.31 137.4,128.11 178.23,159.65 56.31,43.58 74.04,102 74.23,102.5 0.43,1.42 0.21,2.94 -0.6,4.18 -0.81,1.25 -2.11,2.06 -3.59,2.24 l -0.6,-4.97"
         style="fill:#172c3a;fill-opacity:1;fill-rule:nonzero;stroke:none"
         id="path238" /><path
         d="m 2768.33,2009.65 c 0,0 18.74,3.6 26.24,-3.9 7.5,-7.5 45,-65 37.5,-95 -7.5,-30 -17.5,-72.5 -82.5,-85 -65,-12.5 -100,15 -105,22.5 -5,7.5 -9.03,92.57 -2.5,85 11.74,-13.58 32.5,-22.5 32.5,-22.5 0,0 77.52,3.96 89.67,47.78 5.21,18.81 4.09,51.12 4.09,51.12"
         style="fill:#ffffff;fill-opacity:1;fill-rule:nonzero;stroke:none"
         id="path240" /><path
         d="m 2768.33,2009.65 0.95,-4.91 0.63,0.11 c 1.35,0.22 4.68,0.67 8.39,0.67 2.58,0 5.33,-0.23 7.64,-0.8 2.33,-0.57 4.11,-1.49 5.1,-2.5 1.14,-1.1 4.46,-5.4 8.25,-11.18 5.75,-8.74 13.04,-21.28 18.82,-34.36 5.79,-13.05 9.99,-26.74 9.95,-37.2 0,-2.76 -0.28,-5.28 -0.84,-7.51 -3.74,-15.04 -8.02,-32.4 -18.88,-47.34 -10.88,-14.91 -28.18,-27.85 -59.71,-33.97 -11.45,-2.2 -21.9,-3.12 -31.36,-3.12 -21.45,0 -37.85,4.72 -49.34,10.08 -5.73,2.68 -10.24,5.53 -13.48,8 -3.23,2.43 -5.25,4.66 -5.72,5.41 l -1.31,-0.87 1.38,0.76 -0.07,0.11 -1.31,-0.87 1.38,0.76 -0.05,0.1 c -0.38,0.84 -1.17,4.19 -1.77,8.45 -1.89,12.97 -3.31,35.84 -3.31,52.53 0,6.12 0.2,11.45 0.59,15 0.18,1.75 0.45,3.1 0.61,3.59 l 0.05,0.16 -2.45,1.1 1.89,-1.87 0.56,0.77 -2.45,1.1 1.89,-1.87 -3.07,3.02 v -4.27 c 1.46,-0.02 2.66,0.78 3.07,1.25 l -3.07,3.02 v -4.27 4.27 l -2.22,-3.66 c 0.45,-0.28 1.26,-0.61 2.22,-0.61 v 4.27 l -2.22,-3.66 1.69,2.78 -2.47,-2.13 0.78,-0.65 1.69,2.78 -2.47,-2.13 c 12.93,-14.82 34.02,-23.63 34.31,-23.83 l 2.23,-0.4 c 0.24,0.02 19.91,1.01 41.5,7.67 10.79,3.35 22.09,8.11 31.72,15.11 9.6,6.97 17.6,16.36 21.01,28.65 3.89,14.17 4.35,34.01 4.37,44.93 0,4.68 -0.1,7.66 -0.1,7.7 l -5,-0.17 0.95,-4.91 -0.95,4.91 -5,-0.17 c 0,-0.01 0.1,-2.83 0.1,-7.36 0.03,-10.48 -0.61,-30.14 -4.01,-42.26 -2.67,-9.61 -8.91,-17.15 -17.26,-23.24 -12.48,-9.12 -29.56,-14.51 -43.45,-17.41 -6.94,-1.46 -13.09,-2.33 -17.47,-2.83 -2.19,-0.25 -3.95,-0.41 -5.14,-0.51 -1.19,-0.09 -1.78,-0.12 -1.78,-0.12 l 0.25,-5 1.97,4.6 -0.8,0.36 c -3.85,1.71 -20.67,10.03 -29.88,20.81 l -1.59,1.36 c -0.71,0.45 -1.77,0.85 -2.98,0.85 -1.16,0.01 -2.31,-0.41 -3.08,-0.93 -1.46,-1.01 -1.93,-2.01 -2.34,-2.8 -0.64,-1.42 -0.91,-2.68 -1.18,-4.2 -0.75,-4.45 -1.01,-10.98 -1.02,-18.8 0,-12.06 0.7,-26.9 1.79,-39.44 0.55,-6.28 1.2,-11.96 1.93,-16.49 0.37,-2.27 0.75,-4.25 1.18,-5.94 0.48,-1.73 0.82,-3.04 1.84,-4.65 1.58,-2.32 4.12,-4.84 7.98,-7.81 11.48,-8.75 34.47,-20.12 68.88,-20.13 10.11,0 21.2,0.99 33.25,3.3 33.46,6.38 53.66,20.95 65.91,37.92 12.27,16.93 16.73,35.82 20.49,50.78 0.8,3.18 1.14,6.51 1.14,9.94 -0.08,17.24 -8.34,37.4 -17.25,54.6 -4.48,8.58 -9.15,16.35 -13.17,22.46 -4.07,6.15 -7.26,10.44 -9.53,12.75 -2.84,2.81 -6.34,4.28 -9.77,5.13 -3.44,0.85 -6.91,1.09 -10.04,1.1 -5.99,-0.01 -10.72,-0.93 -10.91,-0.96 -2.42,-0.46 -4.14,-2.62 -4.06,-5.08 l 5,0.17"
         style="fill:#172c3a;fill-opacity:1;fill-rule:nonzero;stroke:none"
         id="path242" /><path
         d="m 2053.46,15.75 c 15.79,7.8984 11.33,70.2891 8.74,96.23 -12.89,-6.039 -32.62,-13.4487 -56.24,-16.23 -42.5,-5 -70,15 -70,15 0,0 -8.02,-86.4609 -1.24,-94.6016 7.37,-8.84762 98.74,-10.3984 118.74,-0.3984"
         style="fill:#818388;fill-opacity:1;fill-rule:nonzero;stroke:none"
         id="path244" /><path
         d="m 2053.46,15.75 2.24,-4.4687 c 3.63,1.8398 6.01,5.0078 7.78,8.5898 2.63,5.4102 4.1,12.1992 5.05,19.8906 0.94,7.6797 1.29,16.2383 1.29,24.918 0,17.9414 -1.5,36.3593 -2.64,47.7893 -0.16,1.613 -1.1,3.051 -2.51,3.851 -1.41,0.801 -3.12,0.871 -4.59,0.18 -12.54,-5.871 -31.79,-13.09 -54.7,-15.781 -4.52,-0.528 -8.87,-0.7698 -13.01,-0.7698 -16.57,0 -30.04,3.7808 -39.33,7.5428 -4.65,1.879 -8.25,3.75 -10.65,5.129 -1.2,0.688 -2.1,1.258 -2.69,1.641 l -0.64,0.429 -0.16,0.11 c -1.45,1.058 -3.35,1.25 -5,0.508 -1.64,-0.739 -2.75,-2.297 -2.92,-4.09 0,-0.078 -3.98,-42.7776 -3.98,-71.387 0,-6.0703 0.17,-11.5117 0.63,-15.9336 0.23,-2.207 0.53,-4.1679 0.97,-5.9179 0.47,-1.7617 0.92,-3.3086 2.28,-5.0313 1.35,-1.5703 2.77,-2.3086 4.31,-3.01951 2.69,-1.17969 5.95,-2.00781 9.92,-2.75 11.83,-2.1875 29.85,-3.3086 48.27,-3.32031 12.66,0.01171 25.45,0.53906 36.4,1.69921 11,1.20313 19.92,2.80079 25.92,5.72271 l -2.24,4.4687 -2.23,4.4805 c -3.5,-1.8203 -12.09,-3.6719 -22.5,-4.7305 -10.47,-1.1016 -22.98,-1.6406 -35.35,-1.6406 -13.69,0 -27.25,0.6601 -37.69,1.8711 -5.22,0.6015 -9.66,1.3515 -12.82,2.1601 -1.58,0.3985 -2.84,0.8282 -3.62,1.1797 l -0.79,0.4102 -0.06,0.039 -0.92,-1.0781 1.09,0.9102 -0.17,0.1679 -0.92,-1.0781 1.09,0.9102 -1.06,-0.8828 1.2,0.6796 -0.15,0.2032 -1.05,-0.8828 1.2,0.6796 c -0.02,0 -0.33,0.7422 -0.56,1.9024 -0.77,3.5508 -1.17,10.5586 -1.15,18.7812 0,13.8789 0.98,31.5469 1.97,45.6875 0.99,14.1524 1.97,24.7505 1.97,24.7695 l -4.98,0.461 -2.94,-4.039 c 0.5,-0.34 23.11,-16.7305 59.35,-16.7618 4.52,0 9.26,0.2617 14.18,0.8399 24.32,2.8593 44.53,10.4609 57.77,16.6599 l -2.12,4.531 -4.97,-0.5 c 1.12,-11.23 2.59,-29.4097 2.59,-46.8003 0.01,-11.1992 -0.62,-22.0899 -2.25,-30.3711 -0.81,-4.1367 -1.87,-7.6094 -3.07,-10.0273 -1.2,-2.461 -2.46,-3.6719 -3.27,-4.0508 l 2.23,-4.4805"
         style="fill:#172c3a;fill-opacity:1;fill-rule:nonzero;stroke:none"
         id="path246" /><path
         d="m 3827.55,5.64063 c -2.2,0 -3.97,1.76953 -3.97,3.96875 V 525.441 c 0,2.2 1.77,3.981 3.97,3.981 2.19,0 3.97,-1.781 3.97,-3.981 V 9.60938 c 0,-2.19922 -1.78,-3.96875 -3.97,-3.96875"
         style="fill:#172c3a;fill-opacity:1;fill-rule:nonzero;stroke:none"
         id="path248" /><path
         d="m 3823.67,56.1484 c 0,0 -27.15,38.7813 -62.06,58.1836 -34.9,19.387 -93.07,19.387 -93.07,19.387 0,0 31.02,-112.4768 155.13,-77.5706"
         style="fill:#172c3a;fill-opacity:1;fill-rule:nonzero;stroke:none"
         id="path250" /><path
         d="m 3827.55,56.1484 c 0,0 27.15,38.7813 62.05,58.1836 34.91,19.387 93.09,19.387 93.09,19.387 0,0 -31.03,-112.4768 -155.14,-77.5706"
         style="fill:#172c3a;fill-opacity:1;fill-rule:nonzero;stroke:none"
         id="path252" /><path
         d="m 3823.67,195.77 c 0,0 -27.15,38.789 -62.06,58.191 -34.9,19.379 -93.07,19.379 -93.07,19.379 0,0 31.02,-112.469 155.13,-77.57"
         style="fill:#172c3a;fill-opacity:1;fill-rule:nonzero;stroke:none"
         id="path254" /><path
         d="m 3827.55,195.77 c 0,0 27.15,38.789 62.05,58.191 34.91,19.379 93.09,19.379 93.09,19.379 0,0 -31.03,-112.469 -155.14,-77.57"
         style="fill:#172c3a;fill-opacity:1;fill-rule:nonzero;stroke:none"
         id="path256" /><path
         d="m 3823.67,335.398 c 0,0 -27.15,38.782 -62.06,58.18 -34.9,19.391 -93.07,19.391 -93.07,19.391 0,0 31.02,-112.481 155.13,-77.571"
         style="fill:#172c3a;fill-opacity:1;fill-rule:nonzero;stroke:none"
         id="path258" /><path
         d="m 3827.55,335.398 c 0,0 27.15,38.782 62.05,58.18 34.91,19.391 93.09,19.391 93.09,19.391 0,0 -31.03,-112.481 -155.14,-77.571"
         style="fill:#172c3a;fill-opacity:1;fill-rule:nonzero;stroke:none"
         id="path260" /><path
         d="m 3823.67,475.02 c 0,0 -27.15,38.789 -62.06,58.179 -34.9,19.391 -93.07,19.391 -93.07,19.391 0,0 31.02,-112.469 155.13,-77.57"
         style="fill:#172c3a;fill-opacity:1;fill-rule:nonzero;stroke:none"
         id="path262" /><path
         d="m 3827.55,475.02 c 0,0 27.15,38.789 62.05,58.179 34.91,19.391 93.09,19.391 93.09,19.391 0,0 -31.03,-112.469 -155.14,-77.57"
         style="fill:#172c3a;fill-opacity:1;fill-rule:nonzero;stroke:none"
         id="path264" /><path
         d="m 3827.55,525.441 c 0,0 -31.04,41.77 -32.61,81.661 -1.56,39.898 24.68,91.828 24.68,91.828 0,0 95.06,-78.461 7.93,-173.489"
         style="fill:#172c3a;fill-opacity:1;fill-rule:nonzero;stroke:none"
         id="path266" /><path
         d="m 409.559,5.64063 c -2.375,0 -4.293,1.91796 -4.293,4.28125 V 567.52 c 0,2.378 1.918,4.3 4.293,4.3 2.371,0 4.289,-1.922 4.289,-4.3 V 9.92188 c 0,-2.36329 -1.918,-4.28125 -4.289,-4.28125"
         style="fill:#172c3a;fill-opacity:1;fill-rule:nonzero;stroke:none"
         id="path268" /><path
         d="m 405.363,60.2422 c 0,0 -29.347,41.9298 -67.074,62.8868 -37.734,20.961 -100.621,20.961 -100.621,20.961 0,0 33.539,-121.5783 167.695,-83.8478"
         style="fill:#172c3a;fill-opacity:1;fill-rule:nonzero;stroke:none"
         id="path270" /><path
         d="m 409.559,60.2422 c 0,0 29.343,41.9298 67.078,62.8868 37.73,20.961 100.617,20.961 100.617,20.961 0,0 -33.543,-121.5783 -167.695,-83.8478"
         style="fill:#172c3a;fill-opacity:1;fill-rule:nonzero;stroke:none"
         id="path272" /><path
         d="m 405.363,211.172 c 0,0 -29.347,41.918 -67.074,62.887 -37.734,20.953 -100.621,20.953 -100.621,20.953 0,0 33.539,-121.571 167.695,-83.84"
         style="fill:#172c3a;fill-opacity:1;fill-rule:nonzero;stroke:none"
         id="path274" /><path
         d="m 409.559,211.172 c 0,0 29.343,41.918 67.078,62.887 37.73,20.953 100.617,20.953 100.617,20.953 0,0 -33.543,-121.571 -167.695,-83.84"
         style="fill:#172c3a;fill-opacity:1;fill-rule:nonzero;stroke:none"
         id="path276" /><path
         d="m 405.363,362.09 c 0,0 -29.347,41.93 -67.074,62.89 -37.734,20.961 -100.621,20.961 -100.621,20.961 0,0 33.539,-121.57 167.695,-83.851"
         style="fill:#172c3a;fill-opacity:1;fill-rule:nonzero;stroke:none"
         id="path278" /><path
         d="m 409.559,362.09 c 0,0 29.343,41.93 67.078,62.89 37.73,20.961 100.617,20.961 100.617,20.961 0,0 -33.543,-121.57 -167.695,-83.851"
         style="fill:#172c3a;fill-opacity:1;fill-rule:nonzero;stroke:none"
         id="path280" /><path
         d="m 405.363,513.02 c 0,0 -29.347,41.921 -67.074,62.89 -37.734,20.961 -100.621,20.961 -100.621,20.961 0,0 33.539,-121.57 167.695,-83.851"
         style="fill:#172c3a;fill-opacity:1;fill-rule:nonzero;stroke:none"
         id="path282" /><path
         d="m 409.559,513.02 c 0,0 29.343,41.921 67.078,62.89 37.73,20.961 100.617,20.961 100.617,20.961 0,0 -33.543,-121.57 -167.695,-83.851"
         style="fill:#172c3a;fill-opacity:1;fill-rule:nonzero;stroke:none"
         id="path284" /><path
         d="m 409.559,567.52 c 0,0 -33.555,45.152 -35.25,88.269 -1.692,43.141 26.675,99.262 26.675,99.262 0,0 102.758,-84.801 8.575,-187.531"
         style="fill:#172c3a;fill-opacity:1;fill-rule:nonzero;stroke:none"
         id="path286" /><path
         d="M 769.855,8.10156 V 261.73 c 0,2.372 -1.917,4.301 -4.292,4.301 -2.368,0 -4.286,-1.929 -4.286,-4.301 V 8.10156 h 8.578"
         style="fill:#172c3a;fill-opacity:1;fill-rule:nonzero;stroke:none"
         id="path288" /><path
         d="m 761.375,56.3008 c 0,0 -29.348,41.9375 -67.082,62.8902 -37.73,20.969 -100.613,20.969 -100.613,20.969 0,0 33.539,-121.578 167.695,-83.8592"
         style="fill:#172c3a;fill-opacity:1;fill-rule:nonzero;stroke:none"
         id="path290" /><path
         d="m 765.563,56.3008 c 0,0 29.351,41.9375 67.085,62.8902 37.731,20.969 100.614,20.969 100.614,20.969 0,0 -33.539,-121.578 -167.699,-83.8592"
         style="fill:#172c3a;fill-opacity:1;fill-rule:nonzero;stroke:none"
         id="path292" /><path
         d="m 761.375,207.23 c 0,0 -29.348,41.918 -67.082,62.891 -37.73,20.961 -100.613,20.961 -100.613,20.961 0,0 33.539,-121.582 167.695,-83.852"
         style="fill:#172c3a;fill-opacity:1;fill-rule:nonzero;stroke:none"
         id="path294" /><path
         d="m 765.563,207.23 c 0,0 29.351,41.918 67.085,62.891 37.731,20.961 100.614,20.961 100.614,20.961 0,0 -33.539,-121.582 -167.699,-83.852"
         style="fill:#172c3a;fill-opacity:1;fill-rule:nonzero;stroke:none"
         id="path296" /><path
         d="m 765.563,261.73 c 0,0 -33.551,45.149 -35.243,88.27 -1.691,43.141 26.672,99.262 26.672,99.262 0,0 102.754,-84.801 8.571,-187.532"
         style="fill:#172c3a;fill-opacity:1;fill-rule:nonzero;stroke:none"
         id="path298" /><path
         d="M 3486.94,7.91016 V 242.551 c 0,2.199 -1.78,3.98 -3.98,3.98 -2.19,0 -3.96,-1.781 -3.96,-3.98 V 7.91016 h 7.94"
         style="fill:#172c3a;fill-opacity:1;fill-rule:nonzero;stroke:none"
         id="path300" /><path
         d="m 3479.08,52.5117 c 0,0 -27.14,38.7774 -62.05,58.1793 -34.9,19.391 -93.08,19.391 -93.08,19.391 0,0 31.03,-112.4726 155.13,-77.5703"
         style="fill:#172c3a;fill-opacity:1;fill-rule:nonzero;stroke:none"
         id="path302" /><path
         d="m 3482.96,52.5117 c 0,0 27.16,38.7774 62.06,58.1793 34.9,19.391 93.09,19.391 93.09,19.391 0,0 -31.04,-112.4726 -155.15,-77.5703"
         style="fill:#172c3a;fill-opacity:1;fill-rule:nonzero;stroke:none"
         id="path304" /><path
         d="m 3479.08,192.129 c 0,0 -27.14,38.793 -62.05,58.191 -34.9,19.379 -93.08,19.379 -93.08,19.379 0,0 31.03,-112.469 155.13,-77.57"
         style="fill:#172c3a;fill-opacity:1;fill-rule:nonzero;stroke:none"
         id="path306" /><path
         d="m 3482.96,192.129 c 0,0 27.16,38.793 62.06,58.191 34.9,19.379 93.09,19.379 93.09,19.379 0,0 -31.04,-112.469 -155.15,-77.57"
         style="fill:#172c3a;fill-opacity:1;fill-rule:nonzero;stroke:none"
         id="path308" /><path
         d="m 3482.96,242.551 c 0,0 -31.03,41.769 -32.6,81.66 -1.57,39.898 24.67,91.828 24.67,91.828 0,0 95.07,-78.457 7.93,-173.488"
         style="fill:#172c3a;fill-opacity:1;fill-rule:nonzero;stroke:none"
         id="path310" /><path
         d="M 4162.36,7.91016 V 242.551 c 0,2.199 -1.78,3.98 -3.98,3.98 -2.2,0 -3.96,-1.781 -3.96,-3.98 V 7.91016 h 7.94"
         style="fill:#172c3a;fill-opacity:1;fill-rule:nonzero;stroke:none"
         id="path312" /><path
         d="m 4154.5,52.5117 c 0,0 -27.14,38.7774 -62.06,58.1793 -34.9,19.391 -93.07,19.391 -93.07,19.391 0,0 31.02,-112.4726 155.13,-77.5703"
         style="fill:#172c3a;fill-opacity:1;fill-rule:nonzero;stroke:none"
         id="path314" /><path
         d="m 4158.38,52.5117 c 0,0 27.15,38.7774 62.06,58.1793 34.9,19.391 93.08,19.391 93.08,19.391 0,0 -31.03,-112.4726 -155.14,-77.5703"
         style="fill:#172c3a;fill-opacity:1;fill-rule:nonzero;stroke:none"
         id="path316" /><path
         d="m 4154.5,192.129 c 0,0 -27.14,38.793 -62.06,58.191 -34.9,19.379 -93.07,19.379 -93.07,19.379 0,0 31.02,-112.469 155.13,-77.57"
         style="fill:#172c3a;fill-opacity:1;fill-rule:nonzero;stroke:none"
         id="path318" /><path
         d="m 4158.38,192.129 c 0,0 27.15,38.793 62.06,58.191 34.9,19.379 93.08,19.379 93.08,19.379 0,0 -31.03,-112.469 -155.14,-77.57"
         style="fill:#172c3a;fill-opacity:1;fill-rule:nonzero;stroke:none"
         id="path320" /><path
         d="m 4158.38,242.551 c 0,0 -31.04,41.769 -32.61,81.66 -1.56,39.898 24.68,91.828 24.68,91.828 0,0 95.06,-78.457 7.93,-173.488"
         style="fill:#172c3a;fill-opacity:1;fill-rule:nonzero;stroke:none"
         id="path322" /><path
         d="m 4570.07,3.92969 h 67.6 c 2.76,0 5,2.24219 5,5 0,2.76171 -2.24,5.00001 -5,5.00001 h -67.6 c -2.76,0 -5,-2.2383 -5,-5.00001 0,-2.75781 2.24,-5 5,-5"
         style="fill:#172c3a;fill-opacity:1;fill-rule:nonzero;stroke:none"
         id="path324" /><path
         d="M 996.543,3.92969 H 4477.79 c 2.77,0 5,2.24219 5,5 0,2.76171 -2.23,5.00001 -5,5.00001 H 996.543 c -2.762,0 -5,-2.2383 -5,-5.00001 0,-2.75781 2.238,-5 5,-5"
         style="fill:#172c3a;fill-opacity:1;fill-rule:nonzero;stroke:none"
         id="path326" /><path
         d="M 217.668,3.92969 H 904.27 c 2.761,0 5,2.24219 5,5 0,2.76171 -2.239,5.00001 -5,5.00001 H 217.668 c -2.762,0 -5,-2.2383 -5,-5.00001 0,-2.75781 2.238,-5 5,-5"
         style="fill:#172c3a;fill-opacity:1;fill-rule:nonzero;stroke:none"
         id="path328" /></g></g></svg>
