<svg id="visual" viewBox="0 0 900 600" width="900" height="600" xmlns="http://www.w3.org/2000/svg" xmlns:xlink="http://www.w3.org/1999/xlink" version="1.1"><rect x="0" y="0" width="900" height="600" fill="#edfeff"></rect><path d="M0 186L21.5 193.5C43 201 86 216 128.8 218.2C171.7 220.3 214.3 209.7 257.2 210.8C300 212 343 225 385.8 222C428.7 219 471.3 200 514.2 196.2C557 192.3 600 203.7 642.8 203.5C685.7 203.3 728.3 191.7 771.2 194C814 196.3 857 212.7 878.5 220.8L900 229L900 0L878.5 0C857 0 814 0 771.2 0C728.3 0 685.7 0 642.8 0C600 0 557 0 514.2 0C471.3 0 428.7 0 385.8 0C343 0 300 0 257.2 0C214.3 0 171.7 0 128.8 0C86 0 43 0 21.5 0L0 0Z" fill="#b6d5d7"></path><path d="M0 193L21.5 191.7C43 190.3 86 187.7 128.8 185.8C171.7 184 214.3 183 257.2 181.2C300 179.3 343 176.7 385.8 168C428.7 159.3 471.3 144.7 514.2 142.7C557 140.7 600 151.3 642.8 161.8C685.7 172.3 728.3 182.7 771.2 178.7C814 174.7 857 156.3 878.5 147.2L900 138L900 0L878.5 0C857 0 814 0 771.2 0C728.3 0 685.7 0 642.8 0C600 0 557 0 514.2 0C471.3 0 428.7 0 385.8 0C343 0 300 0 257.2 0C214.3 0 171.7 0 128.8 0C86 0 43 0 21.5 0L0 0Z" fill="#9ac7ca"></path><path d="M0 146L21.5 142C43 138 86 130 128.8 126.7C171.7 123.3 214.3 124.7 257.2 121.3C300 118 343 110 385.8 109C428.7 108 471.3 114 514.2 115.7C557 117.3 600 114.7 642.8 113.7C685.7 112.7 728.3 113.3 771.2 115.3C814 117.3 857 120.7 878.5 122.3L900 124L900 0L878.5 0C857 0 814 0 771.2 0C728.3 0 685.7 0 642.8 0C600 0 557 0 514.2 0C471.3 0 428.7 0 385.8 0C343 0 300 0 257.2 0C214.3 0 171.7 0 128.8 0C86 0 43 0 21.5 0L0 0Z" fill="#7dbabd"></path><path d="M0 61L21.5 62.7C43 64.3 86 67.7 128.8 69C171.7 70.3 214.3 69.7 257.2 72.3C300 75 343 81 385.8 83.5C428.7 86 471.3 85 514.2 87.2C557 89.3 600 94.7 642.8 99.3C685.7 104 728.3 108 771.2 109.7C814 111.3 857 110.7 878.5 110.3L900 110L900 0L878.5 0C857 0 814 0 771.2 0C728.3 0 685.7 0 642.8 0C600 0 557 0 514.2 0C471.3 0 428.7 0 385.8 0C343 0 300 0 257.2 0C214.3 0 171.7 0 128.8 0C86 0 43 0 21.5 0L0 0Z" fill="#5dacb0"></path><path d="M0 62L21.5 57.3C43 52.7 86 43.3 128.8 40.5C171.7 37.7 214.3 41.3 257.2 44C300 46.7 343 48.3 385.8 52.3C428.7 56.3 471.3 62.7 514.2 60C557 57.3 600 45.7 642.8 44.7C685.7 43.7 728.3 53.3 771.2 53.2C814 53 857 43 878.5 38L900 33L900 0L878.5 0C857 0 814 0 771.2 0C728.3 0 685.7 0 642.8 0C600 0 557 0 514.2 0C471.3 0 428.7 0 385.8 0C343 0 300 0 257.2 0C214.3 0 171.7 0 128.8 0C86 0 43 0 21.5 0L0 0Z" fill="#369fa4"></path></svg>