<svg id="visual" viewBox="0 0 1000 200" width="1000" height="200" xmlns="http://www.w3.org/2000/svg" xmlns:xlink="http://www.w3.org/1999/xlink" version="1.1"><path d="M0 17L33.3 17C66.7 17 133.3 17 200 17C266.7 17 333.3 17 400 17C466.7 17 533.3 17 600 16C666.7 15 733.3 13 800 13.3C866.7 13.7 933.3 16.3 966.7 17.7L1000 19L1000 0L966.7 0C933.3 0 866.7 0 800 0C733.3 0 666.7 0 600 0C533.3 0 466.7 0 400 0C333.3 0 266.7 0 200 0C133.3 0 66.7 0 33.3 0L0 0Z" fill="#70b3bd"></path><path d="M0 27L33.3 27.7C66.7 28.3 133.3 29.7 200 30.3C266.7 31 333.3 31 400 30.3C466.7 29.7 533.3 28.3 600 28.3C666.7 28.3 733.3 29.7 800 30.3C866.7 31 933.3 31 966.7 31L1000 31L1000 17L966.7 15.7C933.3 14.3 866.7 11.7 800 11.3C733.3 11 666.7 13 600 14C533.3 15 466.7 15 400 15C333.3 15 266.7 15 200 15C133.3 15 66.7 15 33.3 15L0 15Z" fill="#65adb7"></path><path d="M0 35L33.3 35.3C66.7 35.7 133.3 36.3 200 36.7C266.7 37 333.3 37 400 37.3C466.7 37.7 533.3 38.3 600 39.3C666.7 40.3 733.3 41.7 800 42C866.7 42.3 933.3 41.7 966.7 41.3L1000 41L1000 29L966.7 29C933.3 29 866.7 29 800 28.3C733.3 27.7 666.7 26.3 600 26.3C533.3 26.3 466.7 27.7 400 28.3C333.3 29 266.7 29 200 28.3C133.3 27.7 66.7 26.3 33.3 25.7L0 25Z" fill="#59a6b2"></path><path d="M0 45L33.3 45.3C66.7 45.7 133.3 46.3 200 46.7C266.7 47 333.3 47 400 46.7C466.7 46.3 533.3 45.7 600 46C666.7 46.3 733.3 47.7 800 48C866.7 48.3 933.3 47.7 966.7 47.3L1000 47L1000 39L966.7 39.3C933.3 39.7 866.7 40.3 800 40C733.3 39.7 666.7 38.3 600 37.3C533.3 36.3 466.7 35.7 400 35.3C333.3 35 266.7 35 200 34.7C133.3 34.3 66.7 33.7 33.3 33.3L0 33Z" fill="#4ca0ac"></path><path d="M0 89L33.3 87.7C66.7 86.3 133.3 83.7 200 84C266.7 84.3 333.3 87.7 400 91C466.7 94.3 533.3 97.7 600 97C666.7 96.3 733.3 91.7 800 89.3C866.7 87 933.3 87 966.7 87L1000 87L1000 45L966.7 45.3C933.3 45.7 866.7 46.3 800 46C733.3 45.7 666.7 44.3 600 44C533.3 43.7 466.7 44.3 400 44.7C333.3 45 266.7 45 200 44.7C133.3 44.3 66.7 43.7 33.3 43.3L0 43Z" fill="#3e9aa7"></path><path d="M0 121L33.3 122C66.7 123 133.3 125 200 127C266.7 129 333.3 131 400 132C466.7 133 533.3 133 600 132.7C666.7 132.3 733.3 131.7 800 129.3C866.7 127 933.3 123 966.7 121L1000 119L1000 85L966.7 85C933.3 85 866.7 85 800 87.3C733.3 89.7 666.7 94.3 600 95C533.3 95.7 466.7 92.3 400 89C333.3 85.7 266.7 82.3 200 82C133.3 81.7 66.7 84.3 33.3 85.7L0 87Z" fill="#34929f"></path><path d="M0 131L33.3 132.3C66.7 133.7 133.3 136.3 200 139C266.7 141.7 333.3 144.3 400 145.3C466.7 146.3 533.3 145.7 600 145C666.7 144.3 733.3 143.7 800 141.3C866.7 139 933.3 135 966.7 133L1000 131L1000 117L966.7 119C933.3 121 866.7 125 800 127.3C733.3 129.7 666.7 130.3 600 130.7C533.3 131 466.7 131 400 130C333.3 129 266.7 127 200 125C133.3 123 66.7 121 33.3 120L0 119Z" fill="#318995"></path><path d="M0 155L33.3 157C66.7 159 133.3 163 200 165C266.7 167 333.3 167 400 165.3C466.7 163.7 533.3 160.3 600 159.3C666.7 158.3 733.3 159.7 800 159.7C866.7 159.7 933.3 158.3 966.7 157.7L1000 157L1000 129L966.7 131C933.3 133 866.7 137 800 139.3C733.3 141.7 666.7 142.3 600 143C533.3 143.7 466.7 144.3 400 143.3C333.3 142.3 266.7 139.7 200 137C133.3 134.3 66.7 131.7 33.3 130.3L0 129Z" fill="#2e818b"></path><path d="M0 171L33.3 171.7C66.7 172.3 133.3 173.7 200 175.3C266.7 177 333.3 179 400 178.7C466.7 178.3 533.3 175.7 600 173.7C666.7 171.7 733.3 170.3 800 169.7C866.7 169 933.3 169 966.7 169L1000 169L1000 155L966.7 155.7C933.3 156.3 866.7 157.7 800 157.7C733.3 157.7 666.7 156.3 600 157.3C533.3 158.3 466.7 161.7 400 163.3C333.3 165 266.7 165 200 163C133.3 161 66.7 157 33.3 155L0 153Z" fill="#2b7882"></path><path d="M0 201L33.3 201C66.7 201 133.3 201 200 201C266.7 201 333.3 201 400 201C466.7 201 533.3 201 600 201C666.7 201 733.3 201 800 201C866.7 201 933.3 201 966.7 201L1000 201L1000 167L966.7 167C933.3 167 866.7 167 800 167.7C733.3 168.3 666.7 169.7 600 171.7C533.3 173.7 466.7 176.3 400 176.7C333.3 177 266.7 175 200 173.3C133.3 171.7 66.7 170.3 33.3 169.7L0 169Z" fill="#286f78"></path></svg>